<svg width="5988" height="5497" viewBox="0 0 5988 5497" fill="none" xmlns="http://www.w3.org/2000/svg">
<path d="M3441.32 2969.71H5446V3161.87H4842.18V4965.1L4157.86 4736.01C4131.02 4755.7 4096.13 4775.42 4053.2 4795.13C3725.78 4957.7 3360.81 5039 2958.27 5039C2405.44 5039 1906.28 4881.35 1460.81 4566.02C848.933 4122.61 543 3506.75 543 2718.44C543 2028.68 795.262 1469.46 1299.78 1040.83C1761.37 651.604 2314.2 457 2958.27 457C3339.34 457 3698.95 533.358 4037.1 686.094L4737.52 553.072L4777.77 1986.79H4568.45C4439.64 1577.87 4294.73 1277.32 4133.7 1085.18C3886.81 804.339 3486.95 663.92 2934.12 663.92C2783.83 663.92 2641.6 678.715 2507.42 708.267C1734.54 895.492 1348.09 1575.39 1348.09 2747.99C1353.45 4117.67 1890.18 4807.45 2958.27 4817.3C3001.2 4817.3 3044.16 4814.83 3087.09 4809.91C3537.94 4775.42 3897.55 4610.37 4165.91 4314.75V3161.87H3441.32V2969.71Z" fill="url(#paint0_linear_109_59)"/>
<defs>
<linearGradient id="paint0_linear_109_59" x1="-2259.68" y1="-748.517" x2="1355.72" y2="-2970.8" gradientUnits="userSpaceOnUse">
<stop stop-color="#C14FF9"/>
<stop offset="0.626889" stop-color="#9673FB"/>
<stop offset="1" stop-color="#00F0FF"/>
</linearGradient>
</defs>
</svg>
