<svg width="1636" height="815" viewBox="0 0 1636 815" fill="none" xmlns="http://www.w3.org/2000/svg">
<g clip-path="url(#clip0_117_19)">
<rect x="-2" width="1636" height="815" rx="36" fill="#030612"/>
<path opacity="0.0144928" d="M2501.39 1081.39C2511.81 1080.12 2519.83 1070.41 2520.35 1058.44L2536.82 682.188C2537.09 676.103 2535.36 670.105 2531.97 665.368L2208.27 212.435C2205.75 208.9 2202.41 206.233 2198.65 204.732L1785.2 39.8723C1777.24 36.6991 1768.43 39.1349 1762.67 46.0982L1575.75 272.294C1569.99 279.257 1568.36 289.459 1571.58 298.374L1738.52 761.534C1740.04 765.751 1742.55 769.409 1745.78 772.098L2159.07 1116.62C2163.39 1120.22 2168.72 1121.86 2174.02 1121.22L2501.39 1081.39Z" stroke="url(#paint0_linear_117_19)" stroke-width="4"/>
<path opacity="0.0289855" d="M2460.42 1113.39C2471.05 1112.73 2479.71 1103.43 2480.82 1091.47L2515.11 722.332C2515.66 716.333 2514.23 710.326 2511.08 705.476L2209.5 240.696C2207.16 237.092 2203.98 234.291 2200.31 232.603L1795.58 46.4571C1787.72 42.8439 1778.69 44.7893 1772.51 51.4244L1575.56 263.011C1569.39 269.646 1567.22 279.733 1570.02 288.772L1714.59 754.422C1715.9 758.643 1718.22 762.367 1721.29 765.184L2117.46 1128.35C2121.6 1132.14 2126.84 1134.05 2132.17 1133.72L2460.42 1113.39Z" stroke="url(#paint1_linear_117_19)" stroke-width="4"/>
<path opacity="0.0434783" d="M2418.72 1143.59C2429.52 1143.55 2438.8 1134.72 2440.5 1122.83L2492.23 761.778C2493.08 755.877 2491.94 749.873 2489.03 744.919L2210.08 269.879C2207.93 266.21 2204.9 263.283 2201.33 261.415L1806.27 54.8585C1798.54 50.8153 1789.31 52.2514 1782.73 58.5237L1576.43 255.146C1569.85 261.419 1567.15 271.35 1569.54 280.485L1691.66 747.178C1692.76 751.398 1694.89 755.183 1697.81 758.121L2076.02 1138.56C2079.96 1142.52 2085.11 1144.71 2090.48 1144.69L2418.72 1143.59Z" stroke="url(#paint2_linear_117_19)" stroke-width="4"/>
<path opacity="0.057971" d="M2376.39 1171.98C2387.33 1172.58 2397.19 1164.26 2399.48 1152.5L2468.24 800.468C2469.37 794.679 2468.52 788.688 2465.85 783.638L2209.97 299.933C2208 296.203 2205.12 293.153 2201.65 291.11L1817.19 65.0659C1809.6 60.604 1800.21 61.5166 1793.24 67.3928L1578.28 248.744C1571.32 254.62 1568.09 264.352 1570.06 273.556L1669.73 739.862C1670.63 744.076 1672.57 747.917 1675.34 750.973L2034.82 1147.28C2038.57 1151.41 2043.62 1153.86 2049.01 1154.16L2376.39 1171.98Z" stroke="url(#paint3_linear_117_19)" stroke-width="4"/>
<path opacity="0.0724638" d="M2333.54 1198.56C2344.56 1199.79 2354.96 1192.06 2357.85 1180.47L2443.17 838.344C2444.58 832.68 2444.02 826.713 2441.59 821.575L2209.14 330.804C2207.34 327.017 2204.61 323.848 2201.24 321.633L1828.24 77.0641C1820.82 72.1961 1811.29 72.5714 1803.97 78.0198L1581.03 243.839C1573.71 249.287 1569.97 258.777 1571.51 268.023L1648.81 732.534C1649.51 736.74 1651.26 740.634 1653.89 743.803L1993.93 1154.54C1997.49 1158.84 2002.44 1161.55 2007.83 1162.15L2333.54 1198.56Z" stroke="url(#paint4_linear_117_19)" stroke-width="4"/>
<path opacity="0.0869565" d="M2290.24 1223.31C2301.31 1225.18 2312.19 1218.09 2315.67 1206.74L2417.06 875.356C2418.75 869.83 2418.47 863.895 2416.27 858.675L2207.53 362.437C2205.92 358.595 2203.33 355.309 2200.05 352.926L1839.34 90.8346C1832.1 85.574 1822.48 85.3998 1814.82 90.3907L1584.61 240.461C1576.96 245.452 1572.72 254.661 1573.83 263.92L1628.89 725.255C1629.39 729.449 1630.97 733.395 1633.44 736.675L1953.43 1160.4C1956.79 1164.85 1961.63 1167.82 1967.02 1168.73L2290.24 1223.31Z" stroke="url(#paint5_linear_117_19)" stroke-width="4"/>
<path opacity="0.101449" d="M2246.59 1246.26C2257.66 1248.77 2268.98 1242.36 2273.03 1231.29L2389.95 911.455C2391.91 906.079 2391.92 900.185 2389.96 894.888L2205.12 394.775C2203.68 390.879 2201.24 387.478 2198.06 384.929L1850.41 106.351C1843.37 100.713 1833.68 99.9817 1825.72 104.489L1588.93 238.635C1580.98 243.142 1576.27 252.032 1576.94 261.277L1609.98 718.084C1610.29 722.264 1611.68 726.26 1614.01 729.65L1913.38 1164.88C1916.55 1169.49 1921.27 1172.71 1926.65 1173.92L2246.59 1246.26Z" stroke="url(#paint6_linear_117_19)" stroke-width="4"/>
<path opacity="0.115942" d="M2202.69 1267.42C2213.71 1270.55 2225.4 1264.86 2230 1254.13L2361.89 946.595C2364.12 941.379 2364.41 935.534 2362.69 930.167L2201.86 427.759C2200.6 423.81 2198.3 420.293 2195.22 417.578L1861.34 123.581C1854.53 117.582 1844.82 116.29 1836.6 120.29L1593.92 238.379C1585.7 242.379 1580.54 250.912 1580.77 260.114L1592.08 711.079C1592.18 715.243 1593.39 719.288 1595.58 722.788L1873.85 1168.05C1876.82 1172.8 1881.42 1176.27 1886.78 1177.79L2202.69 1267.42Z" stroke="url(#paint7_linear_117_19)" stroke-width="4"/>
<path opacity="0.130435" d="M2158.63 1286.8C2169.55 1290.53 2181.54 1285.6 2186.67 1275.27L2332.92 980.732C2335.42 975.689 2335.99 969.903 2334.51 964.47L2197.73 461.328C2196.64 457.327 2194.49 453.693 2191.5 450.814L1872.07 142.491C1865.5 136.148 1855.8 134.295 1847.35 137.769L1599.5 239.704C1591.05 243.178 1585.46 251.321 1585.25 260.453L1575.16 704.297C1575.07 708.443 1576.09 712.538 1578.14 716.147L1834.91 1169.94C1837.68 1174.84 1842.16 1178.55 1847.48 1180.38L2158.63 1286.8Z" stroke="url(#paint8_linear_117_19)" stroke-width="4"/>
<path opacity="0.144928" d="M2114.49 1304.43C2125.26 1308.75 2137.48 1304.6 2143.12 1294.7L2303.09 1013.83C2305.86 1008.97 2306.71 1003.25 2305.47 997.756L2192.69 495.422C2191.78 491.367 2189.77 487.616 2186.89 484.57L1882.51 163.039C1876.19 156.37 1866.55 153.959 1857.91 156.893L1605.57 242.616C1596.94 245.55 1590.95 253.273 1590.3 262.305L1559.23 697.796C1558.93 701.921 1559.78 706.065 1561.68 709.785L1796.62 1170.62C1799.19 1175.66 1803.53 1179.62 1808.82 1181.74L2114.49 1304.43Z" stroke="url(#paint9_linear_117_19)" stroke-width="4"/>
<path opacity="0.15942" d="M2070.35 1320.34C2080.93 1325.22 2093.31 1321.86 2099.42 1312.45L2272.47 1045.85C2275.49 1041.19 2276.62 1035.54 2275.63 1029.99L2186.71 529.976C2185.98 525.869 2184.13 521.999 2181.35 518.786L1892.57 185.18C1886.53 178.206 1876.98 175.245 1868.2 177.627L1612.07 247.116C1603.29 249.498 1596.94 256.776 1595.86 265.681L1544.27 691.63C1543.77 695.733 1544.43 699.926 1546.18 703.757L1759.04 1170.15C1761.4 1175.32 1765.61 1179.53 1770.85 1181.95L2070.35 1320.34Z" stroke="url(#paint10_linear_117_19)" stroke-width="4"/>
<path opacity="0.173913" d="M2026.3 1334.55C2036.64 1339.98 2049.11 1337.41 2055.66 1328.52L2241.08 1076.77C2244.36 1072.31 2245.77 1066.75 2245.04 1061.15L2179.79 564.925C2179.24 560.765 2177.53 556.775 2174.86 553.393L1902.18 208.863C1896.44 201.604 1887.02 198.106 1878.14 199.931L1618.92 253.198C1610.04 255.023 1603.34 261.832 1601.84 270.582L1530.26 685.852C1529.56 689.929 1530.03 694.172 1531.63 698.116L1722.23 1168.58C1724.39 1173.89 1728.44 1178.33 1733.62 1181.05L2026.3 1334.55Z" stroke="url(#paint11_linear_117_19)" stroke-width="4"/>
<path opacity="0.188406" d="M1982.42 1347.12C1992.48 1353.04 2004.96 1351.27 2011.91 1342.94L2209.01 1106.55C2212.53 1102.32 2214.22 1096.84 2213.74 1091.19L2171.88 600.207C2171.52 595.994 2169.97 591.881 2167.4 588.328L1911.27 234.035C1905.83 226.512 1896.59 222.493 1887.64 223.761L1626.04 260.852C1617.09 262.12 1610.1 268.442 1608.17 277.01L1517.19 680.516C1516.28 684.563 1516.56 688.856 1518 692.915L1686.25 1165.98C1688.18 1171.42 1692.08 1176.11 1697.19 1179.11L1982.42 1347.12Z" stroke="url(#paint12_linear_117_19)" stroke-width="4"/>
<path opacity="0.202899" d="M1938.78 1358.08C1948.52 1364.47 1960.95 1363.48 1968.25 1355.73L2176.28 1135.17C2180.06 1131.17 2182.03 1125.8 2181.8 1120.11L2162.98 635.754C2162.81 631.49 2161.42 627.252 2158.97 623.525L1919.76 260.638C1914.64 252.874 1905.61 248.354 1896.64 249.069L1633.35 270.064C1624.38 270.78 1617.12 276.599 1614.78 284.959L1505.04 675.671C1503.91 679.683 1504 684.026 1505.28 688.201L1651.14 1162.43C1652.85 1168 1656.59 1172.91 1661.62 1176.21L1938.78 1358.08Z" stroke="url(#paint13_linear_117_19)" stroke-width="4"/>
<path opacity="0.217391" d="M1895.46 1367.47C1904.85 1374.29 1917.14 1374.05 1924.77 1366.92L2142.98 1162.61C2146.99 1158.86 2149.24 1153.6 2149.28 1147.88L2153.07 671.502C2153.1 667.187 2151.88 662.821 2149.54 658.918L1927.58 288.611C1922.8 280.628 1914.01 275.63 1905.06 275.8L1640.78 280.816C1631.83 280.986 1624.34 286.293 1621.59 294.419L1493.78 671.366C1492.44 675.339 1492.31 679.73 1493.43 684.023L1616.96 1157.98C1618.44 1163.67 1622 1168.83 1626.94 1172.41L1895.46 1367.47Z" stroke="url(#paint14_linear_117_19)" stroke-width="4"/>
<path opacity="0.231884" d="M1852.53 1375.34C1861.53 1382.55 1873.64 1383.04 1881.53 1376.53L2109.14 1188.86C2113.38 1185.37 2115.91 1180.23 2116.23 1174.48L2142.14 707.382C2142.38 703.019 2141.33 698.526 2139.11 694.445L1934.67 317.886C1930.23 309.709 1921.73 304.26 1912.83 303.896L1648.26 293.084C1639.37 292.721 1631.68 297.508 1628.53 305.376L1483.39 667.649C1481.82 671.575 1481.49 676.012 1482.43 680.423L1583.74 1152.72C1584.99 1158.53 1588.37 1163.91 1593.19 1167.78L1852.53 1375.34Z" stroke="url(#paint15_linear_117_19)" stroke-width="4"/>
<path opacity="0.246377" d="M1810.05 1381.75C1818.64 1389.29 1830.5 1390.48 1838.63 1384.61L2074.84 1213.9C2079.29 1210.68 2082.11 1205.67 2082.71 1199.92L2130.17 743.329C2130.63 738.922 2129.76 734.3 2127.68 730.039L1940.96 348.396C1936.88 340.048 1928.68 334.179 1919.89 333.298L1655.72 306.843C1646.92 305.962 1639.07 310.226 1635.53 317.81L1473.85 664.564C1472.05 668.435 1471.49 672.915 1472.26 677.445L1551.54 1146.72C1552.54 1152.64 1555.72 1158.25 1560.43 1162.39L1810.05 1381.75Z" stroke="url(#paint16_linear_117_19)" stroke-width="4"/>
<path opacity="0.26087" d="M1768.09 1386.74C1776.24 1394.58 1787.82 1396.43 1796.13 1391.2L2040.12 1237.72C2044.79 1234.79 2047.89 1229.93 2048.78 1224.17L2117.18 779.277C2117.86 774.83 2117.19 770.08 2115.24 765.639L1946.4 380.068C1942.68 371.576 1934.82 365.317 1926.15 363.936L1663.08 322.062C1654.41 320.682 1646.43 324.421 1642.53 331.7L1465.12 662.156C1463.07 665.962 1462.29 670.48 1462.87 675.127L1520.39 1140.06C1521.13 1146.08 1524.11 1151.91 1528.69 1156.31L1768.09 1386.74Z" stroke="url(#paint17_linear_117_19)" stroke-width="4"/>
<path opacity="0.275362" d="M1726.72 1390.37C1734.42 1398.47 1745.66 1400.92 1754.1 1396.34L2005.05 1260.32C2009.92 1257.68 2013.31 1252.99 2014.49 1247.24L2103.14 815.159C2104.06 810.679 2103.59 805.802 2101.8 801.18L1950.92 412.829C1947.57 404.217 1940.08 397.601 1931.56 395.742L1670.29 338.708C1661.77 336.85 1653.7 340.067 1649.44 347.019L1457.17 660.462C1454.88 664.193 1453.85 668.743 1454.23 673.506L1490.32 1132.81C1490.8 1138.93 1493.55 1144.96 1497.98 1149.63L1726.72 1390.37Z" stroke="url(#paint18_linear_117_19)" stroke-width="4"/>
<path opacity="0.289855" d="M1685.98 1392.69C1693.22 1401.01 1704.09 1404.03 1712.63 1400.1L1969.69 1281.7C1974.75 1279.37 1978.42 1274.85 1979.9 1269.12L2088.07 850.91C2089.24 846.404 2088.99 841.404 2087.35 836.602L1954.47 446.602C1951.5 437.895 1944.4 430.957 1936.07 428.643L1677.27 356.745C1668.94 354.432 1660.8 357.132 1656.2 363.736L1449.97 659.524C1447.43 663.166 1446.15 667.741 1446.31 672.616L1461.36 1125.06C1461.56 1131.26 1464.08 1137.5 1468.36 1142.42L1685.98 1392.69Z" stroke="url(#paint19_linear_117_19)" stroke-width="4"/>
<path opacity="0.304348" d="M1645.95 1393.77C1652.71 1402.27 1663.18 1405.81 1671.79 1402.51L1934.1 1301.86C1939.33 1299.85 1943.28 1295.53 1945.07 1289.83L2071.97 886.464C2073.4 881.942 2073.37 876.823 2071.91 871.843L1957.01 481.306C1954.43 472.529 1947.72 465.305 1939.6 462.56L1683.97 376.134C1675.86 373.389 1667.68 375.579 1662.75 381.816L1443.48 659.376C1440.68 662.915 1439.14 667.505 1439.08 672.487L1433.54 1116.89C1433.46 1123.16 1435.72 1129.59 1439.83 1134.75L1645.95 1393.77Z" stroke="url(#paint20_linear_117_19)" stroke-width="4"/>
<path opacity="0.318841" d="M1606.68 1393.68C1612.96 1402.31 1623.01 1406.33 1631.63 1403.65L1898.33 1320.81C1903.72 1319.13 1907.95 1315.01 1910.05 1309.38L2054.85 921.757C2056.54 917.231 2056.76 912.001 2055.48 906.847L1958.5 516.861C1956.31 508.042 1950.01 500.565 1942.12 497.415L1690.33 396.832C1682.44 393.682 1674.25 395.37 1669.02 401.224L1437.66 660.051C1434.6 663.471 1432.79 668.065 1432.49 673.146L1406.87 1108.38C1406.5 1114.7 1408.5 1121.31 1412.43 1126.71L1606.68 1393.68Z" stroke="url(#paint21_linear_117_19)" stroke-width="4"/>
<path opacity="0.333333" d="M1568.21 1392.47C1574.01 1401.2 1583.62 1405.65 1592.23 1403.57L1862.45 1338.55C1867.99 1337.22 1872.48 1333.33 1874.91 1327.77L2036.72 956.727C2038.69 952.211 2039.17 946.878 2038.08 941.555L1958.89 553.185C1957.09 544.347 1951.22 536.653 1943.58 533.123L1696.28 418.795C1688.65 415.264 1680.46 416.461 1674.95 421.915L1432.48 661.579C1429.16 664.864 1427.06 669.448 1426.51 674.621L1381.38 1099.6C1380.71 1105.97 1382.43 1112.74 1386.16 1118.36L1568.21 1392.47Z" stroke="url(#paint22_linear_117_19)" stroke-width="4"/>
<path opacity="0.347826" d="M1530.61 1390.21C1535.93 1399.01 1545.09 1403.84 1553.65 1402.36L1826.51 1355.11C1832.17 1354.13 1836.94 1350.48 1839.69 1345.01L2017.6 991.312C2019.85 986.822 2020.61 981.397 2019.73 975.914L1958.15 590.193C1956.74 581.363 1951.3 573.485 1943.93 569.6L1701.77 441.975C1694.4 438.09 1686.25 438.807 1680.47 443.847L1427.89 663.99C1424.3 667.119 1421.91 671.678 1421.1 676.931L1357.08 1090.66C1356.09 1097.05 1357.52 1103.97 1361.04 1109.79L1530.61 1390.21Z" stroke="url(#paint23_linear_117_19)" stroke-width="4"/>
<path opacity="0.362319" d="M1493.91 1386.98C1498.75 1395.81 1507.46 1400.99 1515.94 1400.07L1790.57 1370.5C1796.34 1369.88 1801.36 1366.49 1804.44 1361.14L1997.49 1025.45C2000.05 1021 2001.09 1015.5 2000.44 1009.87L1956.24 627.801C1955.22 619.002 1950.22 610.974 1943.13 606.761L1706.75 466.323C1699.66 462.11 1691.57 462.357 1685.54 466.971L1423.86 667.306C1420 670.261 1417.3 674.776 1416.21 680.095L1333.97 1081.62C1332.66 1088.02 1333.79 1095.06 1337.09 1101.07L1493.91 1386.98Z" stroke="url(#paint24_linear_117_19)" stroke-width="4"/>
<path opacity="0.376812" d="M1458.15 1382.84C1462.53 1391.68 1470.78 1397.16 1479.16 1396.79L1754.68 1384.74C1760.55 1384.48 1765.82 1381.37 1769.23 1376.16L1976.44 1059.09C1979.3 1054.71 1980.64 1049.14 1980.23 1043.37L1953.14 665.924C1952.51 657.181 1947.95 649.033 1941.15 644.516L1711.16 491.787C1704.36 487.27 1696.34 487.061 1690.09 491.238L1420.33 671.551C1416.2 674.309 1413.19 678.761 1411.81 684.13L1312.06 1072.57C1310.42 1078.95 1311.23 1086.1 1314.3 1092.29L1458.15 1382.84Z" stroke="url(#paint25_linear_117_19)" stroke-width="4"/>
<path opacity="0.391304" d="M1423.39 1377.87C1427.3 1386.69 1435.1 1392.44 1443.36 1392.6L1718.9 1397.85C1724.84 1397.96 1730.36 1395.15 1734.09 1390.1L1954.46 1092.17C1957.63 1087.87 1959.29 1082.26 1959.13 1076.37L1948.83 704.475C1948.59 695.811 1944.46 687.573 1937.96 682.776L1714.96 518.312C1708.45 513.515 1700.52 512.863 1694.07 516.594L1417.26 676.741C1412.87 679.28 1409.53 683.646 1407.85 689.046L1291.35 1063.58C1289.37 1069.93 1289.85 1077.16 1292.67 1083.51L1423.39 1377.87Z" stroke="url(#paint26_linear_117_19)" stroke-width="4"/>
<path opacity="0.405797" d="M1389.65 1372.15C1393.12 1380.92 1400.47 1386.92 1408.58 1387.57L1683.28 1409.86C1689.28 1410.35 1695.02 1407.86 1699.08 1403L1931.58 1124.63C1935.07 1120.45 1937.05 1114.82 1937.16 1108.82L1943.29 743.369C1943.43 734.806 1939.74 726.506 1933.54 721.452L1718.09 545.841C1711.89 540.787 1704.07 539.705 1697.44 542.983L1414.6 682.892C1409.95 685.191 1406.29 689.446 1404.3 694.856L1271.82 1054.75C1269.51 1061.03 1269.65 1068.32 1272.22 1074.82L1389.65 1372.15Z" stroke="url(#paint27_linear_117_19)" stroke-width="4"/>
<path opacity="0.42029" d="M1356.97 1365.74C1360 1374.46 1366.91 1380.66 1374.86 1381.8L1647.88 1420.81C1653.91 1421.68 1659.86 1419.51 1664.24 1414.86L1907.83 1156.43C1911.64 1152.38 1913.96 1146.76 1914.34 1140.67L1936.5 782.519C1937.02 774.08 1933.76 765.743 1927.87 760.453L1720.51 574.317C1714.62 569.027 1706.92 567.527 1700.14 570.347L1412.31 690.015C1407.41 692.051 1403.42 696.169 1401.1 701.566L1253.48 1046.14C1250.83 1052.33 1250.62 1059.66 1252.92 1066.28L1356.97 1365.74Z" stroke="url(#paint28_linear_117_19)" stroke-width="4"/>
<path opacity="0.434783" d="M1325.39 1358.74C1327.99 1367.37 1334.46 1373.76 1342.23 1375.35L1612.73 1430.73C1618.78 1431.97 1624.93 1430.15 1629.63 1425.74L1883.25 1187.52C1887.38 1183.64 1890.05 1178.05 1890.72 1171.89L1928.46 821.841C1929.36 813.546 1926.52 805.197 1920.94 799.691L1722.19 603.681C1716.61 598.175 1709.05 596.27 1702.13 598.628L1410.33 698.118C1405.2 699.869 1400.87 703.822 1398.23 709.178L1236.3 1037.83C1233.31 1043.91 1232.75 1051.25 1234.78 1057.97L1325.39 1358.74Z" stroke="url(#paint29_linear_117_19)" stroke-width="4"/>
<path opacity="0.449275" d="M1294.91 1351.21C1297.1 1359.75 1303.16 1366.31 1310.74 1368.33L1577.9 1439.64C1583.94 1441.25 1590.27 1439.8 1595.27 1435.66L1857.88 1217.85C1862.33 1214.16 1865.34 1208.64 1866.31 1202.44L1919.16 861.25C1920.42 853.118 1918 844.778 1912.73 839.074L1723.08 633.868C1717.81 628.164 1710.4 625.867 1703.37 627.761L1408.62 707.207C1403.27 708.651 1398.62 712.409 1395.65 717.698L1220.27 1029.89C1216.94 1035.83 1216.02 1043.15 1217.77 1049.96L1294.91 1351.21Z" stroke="url(#paint30_linear_117_19)" stroke-width="4"/>
<path opacity="0.463768" d="M1265.58 1343.23C1267.37 1351.68 1273.02 1358.38 1280.4 1360.81L1543.42 1447.59C1549.44 1449.58 1555.93 1448.5 1561.22 1444.65L1831.75 1247.39C1836.51 1243.92 1839.88 1238.5 1841.15 1232.28L1908.6 900.664C1910.22 892.714 1908.21 884.401 1903.25 878.516L1723.15 664.818C1718.19 658.933 1710.94 656.255 1703.83 657.684L1407.13 717.28C1401.57 718.398 1396.6 721.932 1393.3 727.123L1205.36 1022.4C1201.69 1028.17 1200.42 1035.44 1201.88 1042.32L1265.58 1343.23Z" stroke="url(#paint31_linear_117_19)" stroke-width="4"/>
<path opacity="0.478261" d="M1237.41 1334.9C1238.81 1343.23 1244.06 1350.06 1251.23 1352.89L1509.34 1454.63C1515.31 1456.98 1521.94 1456.29 1527.5 1452.75L1804.92 1276.09C1809.97 1272.87 1813.7 1267.58 1815.27 1261.37L1896.78 940C1898.75 932.248 1897.14 923.981 1892.49 917.93L1722.37 696.465C1717.72 690.414 1710.63 687.368 1703.45 688.333L1405.81 728.336C1400.06 729.109 1394.78 732.389 1391.15 737.451L1191.56 1015.42C1187.56 1020.99 1185.92 1028.19 1187.09 1035.12L1237.41 1334.9Z" stroke="url(#paint32_linear_117_19)" stroke-width="4"/>
<path opacity="0.492754" d="M1210.41 1326.28C1211.43 1334.5 1216.29 1341.45 1223.25 1344.65L1475.7 1460.78C1481.6 1463.49 1488.35 1463.21 1494.17 1460L1777.42 1303.92C1782.76 1300.99 1786.83 1295.85 1788.71 1289.68L1883.71 979.178C1886.02 971.64 1884.8 963.433 1880.47 957.23L1720.7 728.745C1716.36 722.542 1709.45 719.137 1702.23 719.64L1404.6 740.37C1398.69 740.782 1393.12 743.777 1389.16 748.678L1178.82 1009.02C1174.5 1014.37 1172.51 1021.46 1173.37 1028.42L1210.41 1326.28Z" stroke="url(#paint33_linear_117_19)" stroke-width="4"/>
<path opacity="0.507246" d="M1184.59 1317.46C1185.25 1325.55 1189.73 1332.61 1196.47 1336.17L1442.54 1466.09C1448.35 1469.16 1455.2 1469.29 1461.25 1466.44L1749.31 1330.86C1754.91 1328.23 1759.31 1323.29 1761.51 1317.19L1869.4 1018.12C1872.04 1010.81 1871.21 1002.68 1867.18 996.332L1718.11 761.591C1714.09 755.248 1707.37 751.496 1700.12 751.54L1403.47 753.369C1397.42 753.406 1391.58 756.09 1387.3 760.798L1167.11 1003.26C1162.49 1008.35 1160.14 1015.31 1160.71 1022.28L1184.59 1317.46Z" stroke="url(#paint34_linear_117_19)" stroke-width="4"/>
<path opacity="0.521739" d="M1159.96 1308.52C1160.26 1316.49 1164.38 1323.65 1170.9 1327.55L1409.9 1470.61C1415.6 1474.03 1422.51 1474.57 1428.77 1472.1L1720.63 1356.87C1726.46 1354.57 1731.19 1349.86 1733.71 1343.86L1853.87 1056.74C1856.83 1049.68 1856.38 1041.63 1852.66 1035.16L1714.6 794.936C1710.88 788.464 1704.35 784.373 1697.1 783.963L1402.35 767.323C1396.19 766.975 1390.1 769.32 1385.53 773.803L1156.41 998.192C1151.49 1003.01 1148.8 1009.81 1149.06 1016.77L1159.96 1308.52Z" stroke="url(#paint35_linear_117_19)" stroke-width="4"/>
<path opacity="0.536232" d="M1136.53 1299.54C1136.48 1307.37 1140.24 1314.63 1146.54 1318.87L1377.81 1474.39C1383.38 1478.14 1390.33 1479.1 1396.78 1477.02L1691.44 1381.94C1697.48 1379.99 1702.51 1375.54 1705.33 1369.67L1837.14 1094.98C1840.41 1088.17 1840.32 1080.22 1836.91 1073.63L1710.13 828.715C1706.71 822.123 1700.39 817.701 1693.15 816.843L1401.21 782.214C1394.97 781.474 1388.66 783.456 1383.8 787.685L1146.66 993.873C1141.47 998.385 1138.44 1005 1138.4 1011.93L1136.53 1299.54Z" stroke="url(#paint36_linear_117_19)" stroke-width="4"/>
<path opacity="0.550725" d="M1114.29 1290.59C1113.9 1298.29 1117.3 1305.64 1123.37 1310.2L1346.29 1477.47C1351.72 1481.55 1358.69 1482.93 1365.29 1481.26L1661.77 1406.05C1668 1404.47 1673.31 1400.32 1676.43 1394.61L1819.23 1132.76C1822.8 1126.21 1823.07 1118.37 1819.97 1111.66L1704.68 862.856C1701.58 856.153 1695.47 851.41 1688.26 850.108L1400 798.024C1393.71 796.888 1387.21 798.488 1382.09 802.434L1137.83 990.353C1132.39 994.541 1129.04 1000.95 1128.69 1007.84L1114.29 1290.59Z" stroke="url(#paint37_linear_117_19)" stroke-width="4"/>
<path opacity="0.565217" d="M1093.23 1281.76C1092.51 1289.32 1095.57 1296.76 1101.41 1301.63L1315.39 1479.9C1320.66 1484.29 1327.61 1486.1 1334.34 1484.84L1631.69 1429.18C1638.07 1427.99 1643.64 1424.16 1647.04 1418.63L1800.16 1170C1804.02 1163.74 1804.65 1156 1801.85 1149.19L1698.25 897.295C1695.45 890.489 1689.57 885.433 1682.41 883.694L1398.67 814.731C1392.37 813.199 1385.72 814.4 1380.34 818.038L1129.88 987.679C1124.2 991.524 1120.54 997.699 1119.88 1004.52L1093.23 1281.76Z" stroke="url(#paint38_linear_117_19)" stroke-width="4"/>
<path opacity="0.57971" d="M1073.36 1273.11C1072.3 1280.54 1075.02 1288.07 1080.62 1293.24L1285.13 1481.73C1290.21 1486.42 1297.12 1488.65 1303.96 1487.81L1601.24 1451.33C1607.73 1450.53 1613.54 1447.05 1617.21 1441.74L1779.97 1206.65C1784.11 1200.67 1785.09 1193.06 1782.6 1186.15L1690.83 931.964C1688.33 925.061 1682.67 919.698 1675.59 917.531L1397.19 832.312C1390.9 830.388 1384.13 831.177 1378.54 834.483L1122.75 985.892C1116.87 989.375 1112.9 995.296 1111.94 1002.04L1073.36 1273.11Z" stroke="url(#paint39_linear_117_19)" stroke-width="4"/>
<path opacity="0.594203" d="M1054.64 1264.73C1053.26 1272.03 1055.64 1279.64 1061 1285.1L1255.52 1483.01C1260.41 1487.99 1267.25 1490.63 1274.16 1490.22L1570.48 1472.49C1577.05 1472.1 1583.05 1468.98 1586.98 1463.91L1758.7 1242.64C1763.11 1236.96 1764.42 1229.47 1762.24 1222.48L1682.4 966.794C1680.21 959.801 1674.79 954.14 1667.8 951.551L1395.51 850.741C1389.27 848.431 1382.41 848.8 1376.64 851.756L1116.4 985.029C1110.34 988.137 1106.09 993.786 1104.83 1000.43L1054.64 1264.73Z" stroke="url(#paint40_linear_117_19)" stroke-width="4"/>
<path opacity="0.608696" d="M1037.08 1256.69C1035.37 1263.84 1037.41 1271.54 1042.53 1277.29L1226.61 1483.8C1231.29 1489.04 1238.02 1492.09 1244.97 1492.1L1539.44 1492.67C1546.06 1492.68 1552.23 1489.94 1556.4 1485.13L1736.37 1277.9C1741.04 1272.53 1742.69 1265.17 1740.82 1258.1L1672.96 1001.72C1671.09 994.643 1665.91 988.691 1659.03 985.689L1393.59 869.988C1387.43 867.304 1380.53 867.251 1374.6 869.841L1110.79 985.127C1104.56 987.847 1100.05 993.206 1098.49 999.735L1037.08 1256.69Z" stroke="url(#paint41_linear_117_19)" stroke-width="4"/>
<path opacity="0.463768" d="M708.35 -134.564C716.947 -133.797 725.009 -137.231 729.501 -143.573L889.594 -369.59C893.254 -374.756 894.132 -381.282 891.997 -387.464L782.737 -703.952C780.816 -709.515 776.617 -714.331 771.042 -717.365L473.785 -879.089C466.659 -882.966 458.123 -883.484 451.042 -880.468L193.928 -770.952C186.848 -767.936 182.161 -761.787 181.441 -754.567L151.418 -453.441C150.855 -447.793 152.777 -442.007 156.771 -437.326L383.964 -171.071C388.402 -165.87 394.98 -162.52 401.983 -161.895L708.35 -134.564Z" stroke="url(#paint42_linear_117_19)" stroke-width="4"/>
<path opacity="0.478261" d="M692.121 -110.073C700.497 -108.967 708.568 -111.981 713.375 -118.011L886.324 -334.947C890.321 -339.961 891.612 -346.505 889.857 -352.858L802.309 -669.882C800.715 -675.655 796.741 -680.77 791.266 -684.096L507.927 -856.255C501.093 -860.408 492.717 -861.297 485.57 -858.628L223.954 -760.921C216.806 -758.252 211.817 -752.371 210.634 -745.225L161.6 -448.933C160.653 -443.208 162.242 -437.203 166.016 -432.243L373.244 -159.917C377.396 -154.46 383.797 -150.788 390.761 -149.868L692.121 -110.073Z" stroke="url(#paint43_linear_117_19)" stroke-width="4"/>
<path opacity="0.492754" d="M675.965 -86.7856C684.118 -85.3535 692.188 -87.962 697.291 -93.6787L882.341 -300.983C886.663 -305.825 888.372 -312.364 887.014 -318.862L820.855 -635.433C819.609 -641.392 815.894 -646.79 810.549 -650.404L541.55 -832.274C535.021 -836.688 526.818 -837.934 519.616 -835.606L254.325 -749.858C247.123 -747.53 241.843 -741.926 240.206 -734.871L172.751 -444.252C171.411 -438.477 172.642 -432.277 176.167 -427.054L363.389 -149.613C367.232 -143.918 373.429 -139.935 380.335 -138.722L675.965 -86.7856Z" stroke="url(#paint44_linear_117_19)" stroke-width="4"/>
<path opacity="0.507246" d="M659.963 -64.6898C667.89 -62.9432 675.954 -65.1593 681.336 -70.563L877.697 -267.722C882.333 -272.376 884.461 -278.883 883.513 -285.502L838.363 -600.658C837.486 -606.778 834.057 -612.44 828.87 -616.333L574.583 -807.177C568.369 -811.841 560.35 -813.434 553.104 -811.443L284.97 -737.759C277.725 -735.768 272.167 -730.444 270.084 -723.5L184.846 -439.354C183.108 -433.559 183.961 -427.189 187.208 -421.72L354.446 -140.113C357.959 -134.199 363.926 -129.917 370.753 -128.413L659.963 -64.6898Z" stroke="url(#paint45_linear_117_19)" stroke-width="4"/>
<path opacity="0.521739" d="M644.195 -43.767C651.895 -41.7167 659.948 -43.5516 665.594 -48.643L872.449 -235.187C877.384 -239.637 879.93 -246.085 879.402 -252.796L854.822 -565.612C854.331 -571.863 851.217 -577.765 846.217 -581.926L606.958 -781.004C601.07 -785.903 593.242 -787.83 585.963 -786.171L315.819 -724.618C308.54 -722.96 302.716 -717.923 300.197 -711.108L197.859 -434.196C195.721 -428.409 196.177 -421.901 199.121 -416.21L346.462 -131.365C349.623 -125.254 355.337 -120.687 362.067 -118.895L644.195 -43.767Z" stroke="url(#paint46_linear_117_19)" stroke-width="4"/>
<path opacity="0.536232" d="M628.734 -23.9982C636.208 -21.6526 644.248 -23.1164 650.145 -27.8963L866.649 -203.395C871.868 -207.625 874.828 -213.989 874.73 -220.763L870.226 -530.348C870.134 -536.698 867.361 -542.815 862.575 -547.229L638.608 -753.794C633.055 -758.916 625.427 -761.166 618.124 -759.836L346.801 -710.438C339.498 -709.109 333.418 -704.363 330.474 -697.695L211.762 -428.74C209.225 -422.992 209.27 -416.379 211.887 -410.489L339.475 -123.313C342.267 -117.029 347.706 -112.194 354.32 -110.118L628.734 -23.9982Z" stroke="url(#paint47_linear_117_19)" stroke-width="4"/>
<path opacity="0.550725" d="M613.658 -5.35816C620.905 -2.72513 628.93 -3.82576 635.066 -8.29427L860.353 -172.364C865.84 -176.36 869.208 -182.611 869.543 -189.419L884.575 -494.919C884.891 -501.334 882.482 -507.635 877.936 -512.287L669.471 -725.592C664.261 -730.923 656.838 -733.486 649.519 -732.482L377.846 -695.222C370.526 -694.219 364.201 -689.77 360.843 -683.264L226.522 -422.946C223.592 -417.269 223.217 -410.585 225.485 -404.524L333.521 -115.904C335.929 -109.472 341.072 -104.388 347.554 -102.033L613.658 -5.35816Z" stroke="url(#paint48_linear_117_19)" stroke-width="4"/>
<path opacity="0.565217" d="M599.038 12.1805C606.059 15.0948 614.067 14.3512 620.432 10.1941L853.614 -142.107C859.353 -145.856 863.121 -151.969 863.891 -158.78L897.871 -459.376C898.6 -465.821 896.572 -472.275 892.289 -477.146L699.489 -696.443C694.629 -701.97 687.417 -704.838 680.089 -704.158L408.885 -678.977C401.557 -678.297 394.996 -674.15 391.237 -667.823L242.105 -416.779C238.793 -411.202 237.989 -404.486 239.891 -398.285L328.632 -109.083C330.643 -102.53 335.472 -97.2153 341.803 -94.5875L599.038 12.1805Z" stroke="url(#paint49_linear_117_19)" stroke-width="4"/>
<path opacity="0.57971" d="M584.945 28.6492C591.74 31.84 599.731 31.4492 606.316 27.6042L846.49 -112.637C852.464 -116.125 856.62 -122.074 857.823 -128.858L910.12 -423.771C911.261 -430.21 909.632 -436.781 905.635 -441.851L728.607 -666.395C724.104 -672.106 717.108 -675.271 709.778 -674.912L439.852 -661.712C432.522 -661.354 425.735 -657.515 421.587 -651.381L258.478 -410.205C254.796 -404.759 253.563 -398.048 255.086 -391.739L324.833 -102.795C326.437 -96.1478 330.936 -90.6219 337.101 -87.7274L584.945 28.6492Z" stroke="url(#paint50_linear_117_19)" stroke-width="4"/>
<path opacity="0.594203" d="M571.446 44.0831C578.014 47.5461 585.987 47.5057 592.783 43.9749L839.035 -83.9615C845.225 -87.1775 849.756 -92.9368 851.387 -99.6636L921.331 -388.153C922.882 -394.551 921.659 -401.204 917.967 -406.451L756.773 -635.5C752.634 -641.382 745.86 -644.835 738.534 -644.798L470.68 -643.44C463.354 -643.403 456.352 -639.88 451.826 -633.954L275.604 -403.194C271.568 -397.908 269.908 -391.24 271.041 -384.855L322.148 -96.9799C323.34 -90.2674 327.495 -84.5521 333.477 -81.3979L571.446 44.0831Z" stroke="url(#paint51_linear_117_19)" stroke-width="4"/>
<path opacity="0.608696" d="M558.604 58.5172C564.943 62.2503 572.898 62.5596 579.899 59.3453L831.305 -56.0869C837.693 -59.0199 842.581 -64.566 844.632 -71.2063L931.517 -352.569C933.469 -358.89 932.659 -365.59 929.288 -370.99L783.941 -603.812C780.169 -609.852 773.623 -613.588 766.309 -613.872L501.302 -624.177C493.988 -624.462 486.781 -621.261 481.891 -615.557L293.442 -395.715C289.072 -390.616 286.995 -384.029 287.733 -377.602L320.594 -91.5837C321.37 -84.8335 325.17 -78.9495 330.954 -75.5432L558.604 58.5172Z" stroke="url(#paint52_linear_117_19)" stroke-width="4"/>
<path opacity="0.623188" d="M546.482 71.9949C552.589 75.9957 560.523 76.6559 567.721 73.7622L823.353 -29.0176C829.92 -31.6577 835.148 -36.9676 837.607 -43.4933L940.694 -317.065C943.035 -323.278 942.637 -329.988 939.601 -335.517L810.067 -571.385C806.67 -577.571 800.354 -581.583 793.06 -582.191L531.658 -603.942C524.363 -604.549 516.959 -601.678 511.719 -596.211L311.956 -387.744C307.273 -382.857 304.791 -376.387 305.133 -369.951L320.187 -86.5485C320.546 -79.7883 323.982 -73.7574 329.554 -70.1072L546.482 71.9949Z" stroke="url(#paint53_linear_117_19)" stroke-width="4"/>
<path opacity="0.637681" d="M535.136 84.5581C541.008 88.8254 548.919 89.8392 556.305 87.2712L815.236 -2.75316C821.961 -5.09144 827.51 -10.1448 830.363 -16.5292L948.88 -281.686C951.593 -287.758 951.605 -294.446 948.913 -300.08L835.113 -538.276C832.093 -544.596 826.016 -548.879 818.748 -549.811L561.682 -582.756C554.415 -583.687 546.827 -581.155 541.252 -575.937L331.104 -379.258C326.133 -374.605 323.263 -368.284 323.211 -361.871L320.935 -81.8168C320.88 -75.0737 323.946 -68.9164 329.293 -65.0311L535.136 84.5581Z" stroke="url(#paint54_linear_117_19)" stroke-width="4"/>
<path opacity="0.652174" d="M524.621 96.2531C530.253 100.786 538.136 102.158 545.704 99.9213L807.006 22.7054C813.87 20.6771 819.717 15.9011 822.949 9.6827L956.092 -246.474C959.16 -252.376 959.576 -259.008 957.236 -264.724L859.045 -504.545C856.408 -510.985 850.575 -515.536 843.343 -516.794L591.318 -560.645C584.087 -561.903 576.326 -559.718 570.429 -554.762L350.848 -370.232C345.615 -365.834 342.375 -359.693 341.936 -353.333L322.847 -77.3321C322.383 -70.632 325.073 -64.3706 330.181 -60.2593L524.621 96.2531Z" stroke="url(#paint55_linear_117_19)" stroke-width="4"/>
<path opacity="0.666667" d="M514.989 107.128C520.372 111.926 528.222 113.661 535.962 111.764L798.717 47.3628C805.7 45.6514 811.821 41.1702 815.414 35.1408L962.355 -211.47C965.755 -217.177 966.562 -223.724 964.578 -229.498L881.833 -470.252C879.582 -476.799 874 -481.613 866.815 -483.201L620.506 -537.636C613.321 -539.224 605.4 -537.395 599.199 -532.715L371.145 -360.648C365.676 -356.522 362.091 -350.588 361.273 -344.311L325.924 -73.0382C325.059 -66.4057 327.371 -60.0607 332.228 -55.7329L514.989 107.128Z" stroke="url(#paint56_linear_117_19)" stroke-width="4"/>
<path opacity="0.681159" d="M506.284 117.236C511.411 122.297 519.22 124.401 527.122 122.852L790.421 71.226C797.501 69.8378 803.873 65.6667 807.806 59.8472L967.69 -176.714C971.4 -182.203 972.587 -188.638 970.96 -194.446L903.451 -435.458C901.59 -442.099 896.268 -447.17 889.141 -449.091L649.192 -513.758C642.065 -515.678 633.999 -514.216 627.508 -509.825L391.956 -350.489C386.279 -346.649 382.371 -340.947 381.187 -334.778L330.165 -68.8779C328.91 -62.3364 330.842 -55.9275 335.436 -51.3934L506.284 117.236Z" stroke="url(#paint57_linear_117_19)" stroke-width="4"/>
<path opacity="0.695652" d="M498.55 126.628C503.411 131.951 511.168 134.432 519.22 133.239L782.169 94.3021C789.325 93.2425 795.923 89.3957 800.177 83.804L972.125 -142.244C976.12 -147.495 977.669 -153.793 976.398 -159.615L923.88 -400.225C922.413 -406.947 917.357 -412.271 910.3 -414.528L677.323 -489.044C670.266 -491.301 662.071 -490.215 655.308 -486.125L413.238 -339.737C407.38 -336.195 403.177 -330.747 401.642 -324.708L335.567 -64.7976C333.933 -58.3682 335.486 -51.9141 339.806 -47.1839L498.55 126.628Z" stroke="url(#paint58_linear_117_19)" stroke-width="4"/>
<path opacity="0.710145" d="M491.825 135.36C496.409 140.943 504.101 143.808 512.291 142.982L774.011 116.602C781.222 115.875 788.02 112.364 792.572 107.017L975.685 -108.096C979.94 -113.094 981.835 -119.234 980.917 -125.049L943.102 -364.616C942.031 -371.405 937.253 -376.978 930.28 -379.574L704.848 -463.531C697.875 -466.127 689.568 -465.427 682.552 -461.651L434.95 -328.38C428.94 -325.145 424.465 -319.966 422.595 -314.079L342.121 -60.7417C340.121 -54.4442 341.297 -47.9631 345.333 -43.0477L491.825 135.36Z" stroke="url(#paint59_linear_117_19)" stroke-width="4"/>
<path opacity="0.724638" d="M486.142 143.491C490.436 149.33 498.048 152.586 506.36 152.138L765.996 138.14C773.24 137.749 780.213 134.584 785.041 129.496L978.4 -74.306C982.89 -79.0391 985.112 -85.0021 984.542 -90.7922L961.106 -328.694C960.433 -335.535 955.944 -341.353 949.072 -344.292L731.722 -437.255C724.849 -440.194 716.449 -439.889 709.198 -436.437L457.051 -316.405C450.914 -313.484 446.197 -308.588 444.009 -302.87L349.816 -56.6544C347.464 -50.5065 348.267 -44.0157 352.009 -38.9261L486.142 143.491Z" stroke="url(#paint60_linear_117_19)" stroke-width="4"/>
<path opacity="0.73913" d="M481.531 151.076C485.521 157.168 493.036 160.822 501.452 160.762L758.171 158.93C765.427 158.879 772.548 156.067 777.631 151.248L980.301 -40.9084C985.002 -45.3659 987.531 -51.138 987.301 -56.8862L977.888 -292.524C977.614 -299.403 973.426 -305.457 966.671 -308.742L757.899 -410.256C751.144 -413.54 742.673 -413.641 735.209 -410.525L479.499 -303.802C473.262 -301.198 468.327 -296.596 465.84 -291.062L358.638 -52.4848C355.949 -46.5021 356.383 -40.0165 359.823 -34.7641L481.531 151.076Z" stroke="url(#paint61_linear_117_19)" stroke-width="4"/>
<path opacity="0.753623" d="M478.017 158.178C481.687 164.517 489.083 168.574 497.583 168.913L750.582 178.99C757.828 179.279 765.072 176.827 770.386 172.289L981.419 -7.93589C986.308 -12.1108 989.125 -17.6803 989.228 -23.3716L993.444 -256.168C993.569 -263.07 989.695 -269.355 983.078 -272.985L783.339 -382.577C776.722 -386.207 768.203 -386.722 760.546 -383.953L502.253 -290.562C495.938 -288.279 490.812 -283.976 488.044 -278.638L368.568 -48.1785C365.559 -42.375 365.629 -35.9105 368.758 -30.5068L478.017 158.178Z" stroke="url(#paint62_linear_117_19)" stroke-width="4"/>
<path opacity="0.768116" d="M475.62 164.857C478.955 171.435 486.208 175.901 494.769 176.648L743.272 198.339C750.485 198.968 757.827 196.882 763.352 192.631L981.788 24.5789C986.842 20.6911 989.929 15.3337 990.356 9.71259L1007.78 -219.69C1008.3 -226.599 1004.75 -233.107 998.294 -237.085L808.005 -354.261C801.545 -358.239 793.005 -359.174 785.177 -356.762L525.271 -276.678C518.903 -274.715 513.607 -270.718 510.577 -265.584L379.585 -43.6845C376.272 -38.0723 375.982 -31.6433 378.793 -26.1001L475.62 164.857Z" stroke="url(#paint63_linear_117_19)" stroke-width="4"/>
<path opacity="0.782609" d="M474.353 171.175C477.337 177.983 484.422 182.861 493.017 184.026L736.282 216.998C743.442 217.969 750.856 216.249 756.57 212.294L981.444 56.6065C986.642 53.0084 989.98 47.8712 990.722 42.3319L1020.89 -183.151C1021.82 -190.052 1018.61 -196.774 1012.33 -201.098L831.863 -325.354C825.584 -329.678 817.048 -331.042 809.074 -328.996L548.51 -262.142C542.109 -260.5 536.668 -256.81 533.392 -251.889L391.665 -38.9528C388.064 -33.5423 387.421 -27.161 389.906 -21.4903L474.353 171.175Z" stroke="url(#paint64_linear_117_19)" stroke-width="4"/>
<path opacity="0.797101" d="M474.228 177.196C476.843 184.222 483.73 189.512 492.333 191.102L729.654 234.99C736.739 236.3 744.2 234.95 750.083 231.293L980.425 88.1177C985.746 84.8097 989.321 79.8964 990.366 74.4485L1032.81 -146.616C1034.13 -153.493 1031.28 -160.417 1025.2 -165.084L854.882 -295.906C848.807 -300.572 840.305 -302.369 832.209 -300.697L571.93 -246.955C565.516 -245.63 559.95 -242.247 556.446 -237.543L404.781 -33.9352C400.908 -28.7351 399.918 -22.4135 402.072 -16.6275L474.228 177.196Z" stroke="url(#paint65_linear_117_19)" stroke-width="4"/>
<path opacity="0.811594" d="M475.251 182.982C477.481 190.211 484.138 195.91 492.716 197.933L723.424 252.34C730.412 253.988 737.898 253.007 743.931 249.653L978.768 119.085C984.197 116.066 987.99 111.38 989.331 106.032L1043.53 -110.144C1045.25 -116.98 1042.76 -124.095 1036.92 -129.1L877.038 -265.963C871.192 -270.968 862.755 -273.2 854.562 -271.91L595.49 -231.11C589.08 -230.101 583.407 -227.024 579.69 -222.54L418.902 -28.5832C414.772 -23.6008 413.441 -17.3497 415.258 -11.4605L475.251 182.982Z" stroke="url(#paint66_linear_117_19)" stroke-width="4"/>
<path opacity="0.826087" d="M477.42 188.597C479.249 196.013 485.642 202.114 494.161 204.573L717.628 269.074C724.497 271.057 731.986 270.444 738.15 267.395L976.514 149.482C982.034 146.751 986.031 142.293 987.658 137.051L1053.09 -73.7942C1055.2 -80.5737 1053.1 -87.8643 1047.51 -93.2002L898.307 -235.577C892.716 -240.913 884.378 -243.58 876.115 -242.678L619.147 -214.609C612.758 -213.911 606.996 -211.137 603.08 -206.876L433.995 -22.8512C429.623 -18.0924 427.958 -11.9221 429.433 -5.94203L477.42 188.597Z" stroke="url(#paint67_linear_117_19)" stroke-width="4"/>
<path opacity="0.84058" d="M480.731 194.104C482.144 201.688 488.239 208.181 496.663 211.077L712.299 285.22C719.029 287.534 726.498 287.288 732.776 284.545L973.706 179.285C979.304 176.84 983.493 172.609 985.397 167.479L1061.51 -37.625C1064 -44.3315 1062.3 -51.782 1056.99 -57.4392L918.672 -204.799C913.362 -210.456 905.157 -213.558 896.852 -213.048L642.862 -197.453C636.509 -197.062 630.671 -194.589 626.569 -190.549L450.024 -16.6945C445.424 -12.1643 443.431 -6.08424 444.56 -0.0257546L480.731 194.104Z" stroke="url(#paint68_linear_117_19)" stroke-width="4"/>
<path opacity="0.855072" d="M485.175 199.565C486.158 207.294 491.917 214.164 500.207 217.496L707.469 300.808C714.038 303.449 721.467 303.566 727.843 301.13L970.384 208.473C976.048 206.309 980.419 202.306 982.592 197.291L1068.81 -1.69332C1071.68 -8.3098 1070.39 -15.9015 1065.39 -21.8672L938.118 -173.682C933.117 -179.647 925.08 -183.178 916.762 -183.064L666.594 -179.642C660.289 -179.556 654.388 -177.378 650.111 -173.56L466.95 -10.0711C462.135 -5.7732 459.819 0.207382 460.598 6.33189L485.175 199.565Z" stroke="url(#paint69_linear_117_19)" stroke-width="4"/>
<path opacity="0.869565" d="M490.735 205.044C491.276 212.892 496.664 220.12 504.779 223.883L703.165 315.866C709.553 318.828 716.921 319.306 723.38 317.177L966.595 237.023C972.314 235.138 976.857 231.361 979.293 226.464L1075.03 33.9462C1078.27 27.4365 1077.41 19.7254 1072.74 13.467L956.636 -142.278C951.97 -148.536 944.139 -152.487 935.836 -152.772L690.302 -161.182C684.057 -161.396 678.103 -159.511 673.66 -155.914L484.732 -2.94065C479.715 1.1218 477.081 6.99528 477.507 13.1733L490.735 205.044Z" stroke="url(#paint70_linear_117_19)" stroke-width="4"/>
<path opacity="0.884058" d="M497.392 210.598C497.481 218.539 502.462 226.099 510.361 230.284L699.413 330.427C705.599 333.704 712.889 334.538 719.416 332.717L962.383 264.918C968.15 263.308 972.859 259.754 975.55 254.978L1080.21 69.2408C1083.81 62.8542 1083.39 55.0461 1079.08 48.514L974.222 -110.641C969.918 -117.173 962.327 -121.534 954.07 -122.217L713.948 -142.079C707.774 -142.59 701.775 -140.994 697.174 -137.615L503.325 4.73558C498.117 8.56012 495.171 14.3182 495.242 20.537L497.392 210.598Z" stroke="url(#paint71_linear_117_19)" stroke-width="4"/>
<path opacity="0.898551" d="M505.122 216.289C504.754 224.293 509.292 232.154 516.933 236.746L696.237 344.523C702.201 348.107 709.394 349.294 715.978 347.779L957.794 292.139C963.602 290.803 968.471 287.47 971.414 282.816L1084.39 104.14C1088.34 97.8932 1088.36 90.014 1084.44 83.2307L990.875 -78.8252C986.959 -85.6082 979.644 -90.3627 971.465 -91.443L737.492 -122.34C731.398 -123.145 725.362 -121.834 720.608 -118.671L522.685 12.9933C517.297 16.5779 514.043 22.2132 513.755 28.4604L505.122 216.289Z" stroke="url(#paint72_linear_117_19)" stroke-width="4"/>
<path opacity="0.913043" d="M513.894 222.173C513.065 230.206 517.129 238.333 524.469 243.316L693.658 358.187C699.38 362.072 706.458 363.605 713.086 362.397L952.878 318.673C958.72 317.608 963.745 314.495 966.936 309.964L1087.6 138.596C1091.89 132.506 1092.36 124.583 1088.85 117.575L1006.6 -46.8813C1003.09 -53.8898 996.091 -59.0199 988.019 -60.4943L760.896 -101.973C754.891 -103.07 748.824 -102.041 743.922 -99.0941L542.762 21.8662C537.202 25.2093 533.645 30.7158 532.999 36.9787L513.894 222.173Z" stroke="url(#paint73_linear_117_19)" stroke-width="4"/>
<path opacity="0.927536" d="M523.675 228.304C522.386 236.333 525.948 244.684 532.945 250.035L691.694 371.453C697.154 375.628 704.101 377.505 710.761 376.602L947.68 344.509C953.553 343.714 958.733 340.818 962.169 336.41L1089.9 172.564C1094.51 166.646 1095.44 158.709 1092.37 151.504L1021.4 -14.8627C1018.33 -22.0679 1011.67 -27.5517 1003.74 -29.4148L784.123 -80.9905C778.215 -82.3781 772.12 -81.6293 767.073 -78.8953L563.506 31.3875C557.784 34.4874 553.927 39.8559 552.921 46.1214L523.675 228.304Z" stroke="url(#paint74_linear_117_19)" stroke-width="4"/>
<path opacity="0.942029" d="M534.427 234.735C532.683 242.724 535.719 251.254 542.332 256.946L690.36 384.354C695.539 388.811 702.338 391.025 709.019 390.43L942.248 369.634C948.15 369.108 953.485 366.429 957.167 362.144L1091.33 206.001C1096.25 200.27 1097.64 192.351 1095.02 184.981L1035.3 17.1805C1032.68 9.81062 1026.4 3.9989 1018.64 1.75423L807.138 -59.4015C801.334 -61.0798 795.213 -60.6106 790.022 -58.0884L584.865 41.585C578.988 44.4402 574.836 49.6639 573.47 55.9194L534.427 234.735Z" stroke="url(#paint75_linear_117_19)" stroke-width="4"/>
<path opacity="0.956522" d="M546.11 241.515C543.919 249.427 546.41 258.086 552.603 264.088L689.67 396.929C694.547 401.656 701.184 404.201 707.875 403.913L936.633 394.04C942.561 393.784 948.052 391.323 951.979 387.162L1091.94 238.866C1097.16 233.338 1099.01 225.471 1096.85 217.971L1048.3 49.1975C1046.15 41.6977 1040.28 35.5883 1032.72 32.9715L829.903 -37.2211C824.212 -39.1909 818.068 -39.0002 812.731 -36.6896L606.785 52.4855C600.761 55.094 596.316 60.1653 594.59 66.3973L546.11 241.515Z" stroke="url(#paint76_linear_117_19)" stroke-width="4"/>
<path opacity="0.971014" d="M558.677 248.689C556.054 256.487 557.987 265.223 563.726 271.499L689.633 409.209C694.192 414.194 700.649 417.067 707.341 417.086L930.884 417.722C936.835 417.739 942.485 415.496 946.661 411.458L1091.8 271.125C1097.29 265.813 1099.59 258.031 1097.91 250.438L1060.44 81.142C1058.76 73.5492 1053.32 67.1742 1046 64.1969L852.384 -14.4621C846.814 -16.7252 840.647 -16.8171 835.164 -14.7184L629.211 64.113C623.046 66.4728 618.312 71.3831 616.228 77.5782L558.677 248.689Z" stroke="url(#paint77_linear_117_19)" stroke-width="4"/>
<path opacity="0.985507" d="M572.083 256.3C569.046 263.948 570.417 272.704 575.67 279.215L690.259 421.231C694.48 426.462 700.742 429.655 707.423 429.984L925.05 440.675C931.024 440.968 936.836 438.946 941.263 435.033L1090.95 302.742C1096.7 297.66 1099.44 289.996 1098.25 282.348L1071.73 112.968C1070.53 105.32 1065.56 98.7146 1058.49 95.3909L874.548 8.85729C869.108 6.29814 862.92 5.92156 857.288 7.80678L652.086 76.4888C645.786 78.5975 640.766 83.3377 638.326 89.4819L572.083 256.3Z" stroke="url(#paint78_linear_117_19)" stroke-width="4"/>
<path d="M586.276 264.385C582.848 271.846 583.658 280.57 588.401 287.273L691.55 433.032C695.415 438.493 701.467 442.001 708.128 442.64L919.181 462.897C925.175 463.472 931.156 461.674 935.839 457.888L1089.46 333.686C1095.44 328.848 1098.61 321.337 1097.9 313.674L1082.21 144.633C1081.49 136.97 1077 130.171 1070.22 126.517L896.364 32.7206C891.064 29.8615 884.854 29.1952 879.068 30.8643L675.352 89.6309C668.923 91.4854 663.62 96.047 660.827 102.127L586.276 264.385Z" stroke="url(#paint79_linear_117_19)" stroke-width="4"/>
</g>
<defs>
<linearGradient id="paint0_linear_117_19" x1="2521.23" y1="1081.12" x2="1472.79" y2="214.705" gradientUnits="userSpaceOnUse">
<stop stop-color="#FF1CF7"/>
<stop offset="1" stop-color="#00F0FF"/>
</linearGradient>
<linearGradient id="paint1_linear_117_19" x1="2480.59" y1="1114.26" x2="1486.32" y2="188.768" gradientUnits="userSpaceOnUse">
<stop stop-color="#FF1CF7"/>
<stop offset="1" stop-color="#00F0FF"/>
</linearGradient>
<linearGradient id="paint2_linear_117_19" x1="2439.15" y1="1145.62" x2="1503.96" y2="164.419" gradientUnits="userSpaceOnUse">
<stop stop-color="#FF1CF7"/>
<stop offset="1" stop-color="#00F0FF"/>
</linearGradient>
<linearGradient id="paint3_linear_117_19" x1="2397" y1="1175.19" x2="1525.6" y2="142.297" gradientUnits="userSpaceOnUse">
<stop stop-color="#FF1CF7"/>
<stop offset="1" stop-color="#00F0FF"/>
</linearGradient>
<linearGradient id="paint4_linear_117_19" x1="2354.22" y1="1202.95" x2="1550.97" y2="123.029" gradientUnits="userSpaceOnUse">
<stop stop-color="#FF1CF7"/>
<stop offset="1" stop-color="#00F0FF"/>
</linearGradient>
<linearGradient id="paint5_linear_117_19" x1="2310.92" y1="1228.89" x2="1579.72" y2="107.213" gradientUnits="userSpaceOnUse">
<stop stop-color="#FF1CF7"/>
<stop offset="1" stop-color="#00F0FF"/>
</linearGradient>
<linearGradient id="paint6_linear_117_19" x1="2267.18" y1="1253.01" x2="1611.36" y2="95.3836" gradientUnits="userSpaceOnUse">
<stop stop-color="#FF1CF7"/>
<stop offset="1" stop-color="#00F0FF"/>
</linearGradient>
<linearGradient id="paint7_linear_117_19" x1="2223.08" y1="1275.3" x2="1645.31" y2="87.9885" gradientUnits="userSpaceOnUse">
<stop stop-color="#FF1CF7"/>
<stop offset="1" stop-color="#00F0FF"/>
</linearGradient>
<linearGradient id="paint8_linear_117_19" x1="2178.72" y1="1295.78" x2="1680.91" y2="85.3686" gradientUnits="userSpaceOnUse">
<stop stop-color="#FF1CF7"/>
<stop offset="1" stop-color="#00F0FF"/>
</linearGradient>
<linearGradient id="paint9_linear_117_19" x1="2134.18" y1="1314.47" x2="1717.45" y2="87.7387" gradientUnits="userSpaceOnUse">
<stop stop-color="#FF1CF7"/>
<stop offset="1" stop-color="#00F0FF"/>
</linearGradient>
<linearGradient id="paint10_linear_117_19" x1="2089.57" y1="1331.38" x2="1754.18" y2="95.1792" gradientUnits="userSpaceOnUse">
<stop stop-color="#FF1CF7"/>
<stop offset="1" stop-color="#00F0FF"/>
</linearGradient>
<linearGradient id="paint11_linear_117_19" x1="2044.95" y1="1346.53" x2="1790.37" y2="107.634" gradientUnits="userSpaceOnUse">
<stop stop-color="#FF1CF7"/>
<stop offset="1" stop-color="#00F0FF"/>
</linearGradient>
<linearGradient id="paint12_linear_117_19" x1="2000.42" y1="1359.96" x2="1825.31" y2="124.918" gradientUnits="userSpaceOnUse">
<stop stop-color="#FF1CF7"/>
<stop offset="1" stop-color="#00F0FF"/>
</linearGradient>
<linearGradient id="paint13_linear_117_19" x1="1956.06" y1="1371.7" x2="1858.38" y2="146.73" gradientUnits="userSpaceOnUse">
<stop stop-color="#FF1CF7"/>
<stop offset="1" stop-color="#00F0FF"/>
</linearGradient>
<linearGradient id="paint14_linear_117_19" x1="1911.95" y1="1381.79" x2="1889" y2="172.67" gradientUnits="userSpaceOnUse">
<stop stop-color="#FF1CF7"/>
<stop offset="1" stop-color="#00F0FF"/>
</linearGradient>
<linearGradient id="paint15_linear_117_19" x1="1868.18" y1="1390.28" x2="1916.73" y2="202.263" gradientUnits="userSpaceOnUse">
<stop stop-color="#FF1CF7"/>
<stop offset="1" stop-color="#00F0FF"/>
</linearGradient>
<linearGradient id="paint16_linear_117_19" x1="1824.82" y1="1397.21" x2="1941.21" y2="234.987" gradientUnits="userSpaceOnUse">
<stop stop-color="#FF1CF7"/>
<stop offset="1" stop-color="#00F0FF"/>
</linearGradient>
<linearGradient id="paint17_linear_117_19" x1="1781.94" y1="1402.64" x2="1962.19" y2="270.292" gradientUnits="userSpaceOnUse">
<stop stop-color="#FF1CF7"/>
<stop offset="1" stop-color="#00F0FF"/>
</linearGradient>
<linearGradient id="paint18_linear_117_19" x1="1739.63" y1="1406.63" x2="1979.53" y2="307.626" gradientUnits="userSpaceOnUse">
<stop stop-color="#FF1CF7"/>
<stop offset="1" stop-color="#00F0FF"/>
</linearGradient>
<linearGradient id="paint19_linear_117_19" x1="1697.94" y1="1409.23" x2="1993.2" y2="346.452" gradientUnits="userSpaceOnUse">
<stop stop-color="#FF1CF7"/>
<stop offset="1" stop-color="#00F0FF"/>
</linearGradient>
<linearGradient id="paint20_linear_117_19" x1="1656.94" y1="1410.51" x2="2003.23" y2="386.267" gradientUnits="userSpaceOnUse">
<stop stop-color="#FF1CF7"/>
<stop offset="1" stop-color="#00F0FF"/>
</linearGradient>
<linearGradient id="paint21_linear_117_19" x1="1616.69" y1="1410.54" x2="2009.74" y2="426.613" gradientUnits="userSpaceOnUse">
<stop stop-color="#FF1CF7"/>
<stop offset="1" stop-color="#00F0FF"/>
</linearGradient>
<linearGradient id="paint22_linear_117_19" x1="1577.27" y1="1409.39" x2="2012.91" y2="467.082" gradientUnits="userSpaceOnUse">
<stop stop-color="#FF1CF7"/>
<stop offset="1" stop-color="#00F0FF"/>
</linearGradient>
<linearGradient id="paint23_linear_117_19" x1="1538.71" y1="1407.13" x2="2012.95" y2="507.323" gradientUnits="userSpaceOnUse">
<stop stop-color="#FF1CF7"/>
<stop offset="1" stop-color="#00F0FF"/>
</linearGradient>
<linearGradient id="paint24_linear_117_19" x1="1501.07" y1="1403.84" x2="2010.12" y2="547.046" gradientUnits="userSpaceOnUse">
<stop stop-color="#FF1CF7"/>
<stop offset="1" stop-color="#00F0FF"/>
</linearGradient>
<linearGradient id="paint25_linear_117_19" x1="1464.4" y1="1399.59" x2="2004.68" y2="586.016" gradientUnits="userSpaceOnUse">
<stop stop-color="#FF1CF7"/>
<stop offset="1" stop-color="#00F0FF"/>
</linearGradient>
<linearGradient id="paint26_linear_117_19" x1="1428.75" y1="1394.47" x2="1996.92" y2="624.054" gradientUnits="userSpaceOnUse">
<stop stop-color="#FF1CF7"/>
<stop offset="1" stop-color="#00F0FF"/>
</linearGradient>
<linearGradient id="paint27_linear_117_19" x1="1394.15" y1="1388.55" x2="1987.13" y2="661.031" gradientUnits="userSpaceOnUse">
<stop stop-color="#FF1CF7"/>
<stop offset="1" stop-color="#00F0FF"/>
</linearGradient>
<linearGradient id="paint28_linear_117_19" x1="1360.63" y1="1381.91" x2="1975.57" y2="696.866" gradientUnits="userSpaceOnUse">
<stop stop-color="#FF1CF7"/>
<stop offset="1" stop-color="#00F0FF"/>
</linearGradient>
<linearGradient id="paint29_linear_117_19" x1="1328.23" y1="1374.65" x2="1962.52" y2="731.517" gradientUnits="userSpaceOnUse">
<stop stop-color="#FF1CF7"/>
<stop offset="1" stop-color="#00F0FF"/>
</linearGradient>
<linearGradient id="paint30_linear_117_19" x1="1296.98" y1="1366.84" x2="1948.22" y2="764.98" gradientUnits="userSpaceOnUse">
<stop stop-color="#FF1CF7"/>
<stop offset="1" stop-color="#00F0FF"/>
</linearGradient>
<linearGradient id="paint31_linear_117_19" x1="1266.9" y1="1358.57" x2="1932.91" y2="797.281" gradientUnits="userSpaceOnUse">
<stop stop-color="#FF1CF7"/>
<stop offset="1" stop-color="#00F0FF"/>
</linearGradient>
<linearGradient id="paint32_linear_117_19" x1="1238" y1="1349.92" x2="1916.81" y2="828.474" gradientUnits="userSpaceOnUse">
<stop stop-color="#FF1CF7"/>
<stop offset="1" stop-color="#00F0FF"/>
</linearGradient>
<linearGradient id="paint33_linear_117_19" x1="1210.3" y1="1340.97" x2="1900.09" y2="858.632" gradientUnits="userSpaceOnUse">
<stop stop-color="#FF1CF7"/>
<stop offset="1" stop-color="#00F0FF"/>
</linearGradient>
<linearGradient id="paint34_linear_117_19" x1="1183.81" y1="1331.82" x2="1882.94" y2="887.848" gradientUnits="userSpaceOnUse">
<stop stop-color="#FF1CF7"/>
<stop offset="1" stop-color="#00F0FF"/>
</linearGradient>
<linearGradient id="paint35_linear_117_19" x1="1158.53" y1="1322.53" x2="1865.49" y2="916.228" gradientUnits="userSpaceOnUse">
<stop stop-color="#FF1CF7"/>
<stop offset="1" stop-color="#00F0FF"/>
</linearGradient>
<linearGradient id="paint36_linear_117_19" x1="1134.47" y1="1313.2" x2="1847.87" y2="943.889" gradientUnits="userSpaceOnUse">
<stop stop-color="#FF1CF7"/>
<stop offset="1" stop-color="#00F0FF"/>
</linearGradient>
<linearGradient id="paint37_linear_117_19" x1="1111.62" y1="1303.9" x2="1830.18" y2="970.957" gradientUnits="userSpaceOnUse">
<stop stop-color="#FF1CF7"/>
<stop offset="1" stop-color="#00F0FF"/>
</linearGradient>
<linearGradient id="paint38_linear_117_19" x1="1089.98" y1="1294.71" x2="1812.5" y2="997.562" gradientUnits="userSpaceOnUse">
<stop stop-color="#FF1CF7"/>
<stop offset="1" stop-color="#00F0FF"/>
</linearGradient>
<linearGradient id="paint39_linear_117_19" x1="1069.53" y1="1285.71" x2="1794.89" y2="1023.84" gradientUnits="userSpaceOnUse">
<stop stop-color="#FF1CF7"/>
<stop offset="1" stop-color="#00F0FF"/>
</linearGradient>
<linearGradient id="paint40_linear_117_19" x1="1050.25" y1="1276.97" x2="1777.38" y2="1049.91" gradientUnits="userSpaceOnUse">
<stop stop-color="#FF1CF7"/>
<stop offset="1" stop-color="#00F0FF"/>
</linearGradient>
<linearGradient id="paint41_linear_117_19" x1="1032.14" y1="1268.56" x2="1759.99" y2="1075.92" gradientUnits="userSpaceOnUse">
<stop stop-color="#FF1CF7"/>
<stop offset="1" stop-color="#00F0FF"/>
</linearGradient>
<linearGradient id="paint42_linear_117_19" x1="723.397" y1="-131.325" x2="382.078" y2="-932.652" gradientUnits="userSpaceOnUse">
<stop stop-color="#2E0356"/>
<stop offset="1" stop-color="#00F0FF"/>
</linearGradient>
<linearGradient id="paint43_linear_117_19" x1="706.653" y1="-106.233" x2="407.176" y2="-908.106" gradientUnits="userSpaceOnUse">
<stop stop-color="#2E0356"/>
<stop offset="1" stop-color="#00F0FF"/>
</linearGradient>
<linearGradient id="paint44_linear_117_19" x1="689.98" y1="-82.3751" x2="431.107" y2="-883.282" gradientUnits="userSpaceOnUse">
<stop stop-color="#2E0356"/>
<stop offset="1" stop-color="#00F0FF"/>
</linearGradient>
<linearGradient id="paint45_linear_117_19" x1="673.458" y1="-59.7345" x2="454.008" y2="-858.314" gradientUnits="userSpaceOnUse">
<stop stop-color="#2E0356"/>
<stop offset="1" stop-color="#00F0FF"/>
</linearGradient>
<linearGradient id="paint46_linear_117_19" x1="657.17" y1="-38.2924" x2="476.024" y2="-833.31" gradientUnits="userSpaceOnUse">
<stop stop-color="#2E0356"/>
<stop offset="1" stop-color="#00F0FF"/>
</linearGradient>
<linearGradient id="paint47_linear_117_19" x1="641.193" y1="-18.0257" x2="497.303" y2="-808.353" gradientUnits="userSpaceOnUse">
<stop stop-color="#2E0356"/>
<stop offset="1" stop-color="#00F0FF"/>
</linearGradient>
<linearGradient id="paint48_linear_117_19" x1="625.601" y1="1.09195" x2="517.994" y2="-783.505" gradientUnits="userSpaceOnUse">
<stop stop-color="#2E0356"/>
<stop offset="1" stop-color="#00F0FF"/>
</linearGradient>
<linearGradient id="paint49_linear_117_19" x1="610.469" y1="19.0908" x2="538.245" y2="-758.801" gradientUnits="userSpaceOnUse">
<stop stop-color="#2E0356"/>
<stop offset="1" stop-color="#00F0FF"/>
</linearGradient>
<linearGradient id="paint50_linear_117_19" x1="595.866" y1="36.004" x2="558.199" y2="-734.258" gradientUnits="userSpaceOnUse">
<stop stop-color="#2E0356"/>
<stop offset="1" stop-color="#00F0FF"/>
</linearGradient>
<linearGradient id="paint51_linear_117_19" x1="581.858" y1="51.8685" x2="577.996" y2="-709.872" gradientUnits="userSpaceOnUse">
<stop stop-color="#2E0356"/>
<stop offset="1" stop-color="#00F0FF"/>
</linearGradient>
<linearGradient id="paint52_linear_117_19" x1="568.509" y1="66.7232" x2="597.764" y2="-685.619" gradientUnits="userSpaceOnUse">
<stop stop-color="#2E0356"/>
<stop offset="1" stop-color="#00F0FF"/>
</linearGradient>
<linearGradient id="paint53_linear_117_19" x1="555.879" y1="80.6107" x2="617.628" y2="-661.458" gradientUnits="userSpaceOnUse">
<stop stop-color="#2E0356"/>
<stop offset="1" stop-color="#00F0FF"/>
</linearGradient>
<linearGradient id="paint54_linear_117_19" x1="544.023" y1="93.5756" x2="637.695" y2="-637.331" gradientUnits="userSpaceOnUse">
<stop stop-color="#2E0356"/>
<stop offset="1" stop-color="#00F0FF"/>
</linearGradient>
<linearGradient id="paint55_linear_117_19" x1="532.995" y1="105.665" x2="658.067" y2="-613.163" gradientUnits="userSpaceOnUse">
<stop stop-color="#2E0356"/>
<stop offset="1" stop-color="#00F0FF"/>
</linearGradient>
<linearGradient id="paint56_linear_117_19" x1="522.842" y1="116.929" x2="678.825" y2="-588.867" gradientUnits="userSpaceOnUse">
<stop stop-color="#2E0356"/>
<stop offset="1" stop-color="#00F0FF"/>
</linearGradient>
<linearGradient id="paint57_linear_117_19" x1="513.608" y1="127.418" x2="700.038" y2="-564.339" gradientUnits="userSpaceOnUse">
<stop stop-color="#2E0356"/>
<stop offset="1" stop-color="#00F0FF"/>
</linearGradient>
<linearGradient id="paint58_linear_117_19" x1="505.334" y1="137.185" x2="721.755" y2="-539.467" gradientUnits="userSpaceOnUse">
<stop stop-color="#2E0356"/>
<stop offset="1" stop-color="#00F0FF"/>
</linearGradient>
<linearGradient id="paint59_linear_117_19" x1="498.055" y1="146.285" x2="744.007" y2="-514.127" gradientUnits="userSpaceOnUse">
<stop stop-color="#2E0356"/>
<stop offset="1" stop-color="#00F0FF"/>
</linearGradient>
<linearGradient id="paint60_linear_117_19" x1="491.803" y1="154.775" x2="766.803" y2="-488.186" gradientUnits="userSpaceOnUse">
<stop stop-color="#2E0356"/>
<stop offset="1" stop-color="#00F0FF"/>
</linearGradient>
<linearGradient id="paint61_linear_117_19" x1="486.605" y1="162.711" x2="790.127" y2="-461.508" gradientUnits="userSpaceOnUse">
<stop stop-color="#2E0356"/>
<stop offset="1" stop-color="#00F0FF"/>
</linearGradient>
<linearGradient id="paint62_linear_117_19" x1="482.484" y1="170.151" x2="813.939" y2="-433.952" gradientUnits="userSpaceOnUse">
<stop stop-color="#2E0356"/>
<stop offset="1" stop-color="#00F0FF"/>
</linearGradient>
<linearGradient id="paint63_linear_117_19" x1="479.458" y1="177.153" x2="838.171" y2="-405.38" gradientUnits="userSpaceOnUse">
<stop stop-color="#2E0356"/>
<stop offset="1" stop-color="#00F0FF"/>
</linearGradient>
<linearGradient id="paint64_linear_117_19" x1="477.542" y1="183.778" x2="862.726" y2="-375.656" gradientUnits="userSpaceOnUse">
<stop stop-color="#2E0356"/>
<stop offset="1" stop-color="#00F0FF"/>
</linearGradient>
<linearGradient id="paint65_linear_117_19" x1="476.744" y1="190.083" x2="887.481" y2="-344.657" gradientUnits="userSpaceOnUse">
<stop stop-color="#2E0356"/>
<stop offset="1" stop-color="#00F0FF"/>
</linearGradient>
<linearGradient id="paint66_linear_117_19" x1="477.07" y1="196.128" x2="912.28" y2="-312.273" gradientUnits="userSpaceOnUse">
<stop stop-color="#2E0356"/>
<stop offset="1" stop-color="#00F0FF"/>
</linearGradient>
<linearGradient id="paint67_linear_117_19" x1="478.52" y1="201.973" x2="936.94" y2="-278.414" gradientUnits="userSpaceOnUse">
<stop stop-color="#2E0356"/>
<stop offset="1" stop-color="#00F0FF"/>
</linearGradient>
<linearGradient id="paint68_linear_117_19" x1="481.092" y1="207.675" x2="961.255" y2="-243.019" gradientUnits="userSpaceOnUse">
<stop stop-color="#2E0356"/>
<stop offset="1" stop-color="#00F0FF"/>
</linearGradient>
<linearGradient id="paint69_linear_117_19" x1="484.778" y1="213.292" x2="984.992" y2="-206.057" gradientUnits="userSpaceOnUse">
<stop stop-color="#2E0356"/>
<stop offset="1" stop-color="#00F0FF"/>
</linearGradient>
<linearGradient id="paint70_linear_117_19" x1="489.565" y1="218.882" x2="1007.91" y2="-167.541" gradientUnits="userSpaceOnUse">
<stop stop-color="#2E0356"/>
<stop offset="1" stop-color="#00F0FF"/>
</linearGradient>
<linearGradient id="paint71_linear_117_19" x1="495.439" y1="224.5" x2="1029.74" y2="-127.523" gradientUnits="userSpaceOnUse">
<stop stop-color="#2E0356"/>
<stop offset="1" stop-color="#00F0FF"/>
</linearGradient>
<linearGradient id="paint72_linear_117_19" x1="502.379" y1="230.201" x2="1050.23" y2="-86.1064" gradientUnits="userSpaceOnUse">
<stop stop-color="#2E0356"/>
<stop offset="1" stop-color="#00F0FF"/>
</linearGradient>
<linearGradient id="paint73_linear_117_19" x1="510.363" y1="236.037" x2="1069.13" y2="-43.4424" gradientUnits="userSpaceOnUse">
<stop stop-color="#2E0356"/>
<stop offset="1" stop-color="#00F0FF"/>
</linearGradient>
<linearGradient id="paint74_linear_117_19" x1="519.363" y1="242.061" x2="1086.21" y2="0.266337" gradientUnits="userSpaceOnUse">
<stop stop-color="#2E0356"/>
<stop offset="1" stop-color="#00F0FF"/>
</linearGradient>
<linearGradient id="paint75_linear_117_19" x1="529.349" y1="248.322" x2="1101.28" y2="44.7721" gradientUnits="userSpaceOnUse">
<stop stop-color="#2E0356"/>
<stop offset="1" stop-color="#00F0FF"/>
</linearGradient>
<linearGradient id="paint76_linear_117_19" x1="540.288" y1="254.868" x2="1114.17" y2="89.7866" gradientUnits="userSpaceOnUse">
<stop stop-color="#2E0356"/>
<stop offset="1" stop-color="#00F0FF"/>
</linearGradient>
<linearGradient id="paint77_linear_117_19" x1="552.142" y1="261.743" x2="1124.79" y2="134.99" gradientUnits="userSpaceOnUse">
<stop stop-color="#2E0356"/>
<stop offset="1" stop-color="#00F0FF"/>
</linearGradient>
<linearGradient id="paint78_linear_117_19" x1="564.873" y1="268.992" x2="1133.08" y2="180.044" gradientUnits="userSpaceOnUse">
<stop stop-color="#2E0356"/>
<stop offset="1" stop-color="#00F0FF"/>
</linearGradient>
<linearGradient id="paint79_linear_117_19" x1="578.437" y1="276.655" x2="1139.06" y2="224.603" gradientUnits="userSpaceOnUse">
<stop stop-color="#2E0356"/>
<stop offset="1" stop-color="#00F0FF"/>
</linearGradient>
<clipPath id="clip0_117_19">
<rect width="1636" height="815" rx="25" fill="white"/>
</clipPath>
</defs>
</svg>
