<svg width="782" height="923" viewBox="0 0 782 923" fill="none" xmlns="http://www.w3.org/2000/svg">
    <path opacity="0.0144928" d="M566.2 893.828C574.976 894.615 576.662 875.742 569.518 856.668L482.436 624.135C480.519 619.018 478.133 614.405 475.538 610.799L220.045 255.776C218.39 253.476 216.682 251.631 215 250.326L8.35926 89.9901C1.88295 84.965 -3.2374 88.6146 -4.15703 98.9113L-14.2282 211.688C-15.1477 221.985 -11.6404 236.399 -5.65498 246.921L185.322 582.666C186.876 585.399 188.538 587.758 190.231 589.635L451.551 879.406C454.205 882.349 456.854 884.017 459.209 884.228L566.2 893.828Z" stroke="url(#paint0_linear_100_31)" stroke-width="4"/>
    <path opacity="0.0289855" d="M556.113 909.508C565.96 911.425 569.191 891.503 562.256 871.634L484.631 649.244C482.972 644.49 480.863 640.207 478.508 636.808L228.071 275.355C226.598 273.228 225.052 271.484 223.495 270.188L14.4232 96.2503C7.78514 90.7278 1.95788 94.1325 0.273296 104.519L-15.9326 204.437C-17.6171 214.823 -14.7293 229.541 -8.92055 240.177L174.031 575.162C175.394 577.657 176.869 579.833 178.4 581.606L438.574 883.024C441.021 885.858 443.543 887.587 445.899 888.046L556.113 909.508Z" stroke="url(#paint1_linear_100_31)" stroke-width="4"/>
    <path opacity="0.0434783" d="M544.882 923.37C555.829 926.536 560.996 905.753 554.37 885.205L486.172 673.732C484.756 669.342 482.905 665.382 480.773 662.187L236.106 295.515C234.794 293.549 233.395 291.902 231.954 290.625L21.0884 103.808C14.3036 97.7969 7.67813 100.886 5.09886 111.262L-16.5746 198.448C-19.1539 208.824 -17.0071 223.751 -11.3931 234.472L163.087 567.657C164.279 569.933 165.589 571.941 166.974 573.614L425.232 885.612C427.482 888.33 429.878 890.102 432.217 890.779L544.882 923.37Z" stroke="url(#paint2_linear_100_31)" stroke-width="4"/>
    <path opacity="0.057971" d="M532.583 935.387C544.636 939.91 552.169 918.585 545.962 897.514L487.064 697.571C485.876 693.536 484.257 689.882 482.329 686.882L244.119 316.213C242.949 314.393 241.679 312.835 240.345 311.583L28.3169 112.638C21.4014 106.15 13.8805 108.819 10.2683 119.045L-16.1487 193.825C-19.7609 204.051 -18.4831 219.053 -13.0819 229.829L152.518 560.203C153.56 562.282 154.725 564.136 155.98 565.715L411.566 887.196C413.635 889.798 415.907 891.6 418.216 892.466L532.583 935.387Z" stroke="url(#paint3_linear_100_31)" stroke-width="4"/>
    <path opacity="0.0724638" d="M519.353 945.586C532.483 951.55 542.815 930.182 537.145 908.787L487.306 720.732C486.326 717.031 484.915 713.66 483.168 710.836L252.077 337.401C251.029 335.708 249.871 334.23 248.63 333.003L36.0606 122.706C29.0327 115.753 20.5262 117.864 15.7476 127.747L-14.6832 190.687C-19.4617 200.57 -19.1799 215.47 -14.0107 226.268L142.338 552.845C143.251 554.751 144.291 556.472 145.435 557.968L397.604 887.807C399.511 890.301 401.67 892.124 403.941 893.156L519.353 945.586Z" stroke="url(#paint4_linear_100_31)" stroke-width="4"/>
    <path opacity="0.0869565" d="M505.432 954.08C519.573 961.538 533.054 940.829 528.04 919.353L486.906 743.19C486.112 739.792 484.884 736.666 483.292 733.993L259.951 359.032C259.124 357.642 258.204 356.387 257.208 355.285L256.776 354.822L44.2756 133.968C37.1561 126.569 27.6017 127.942 21.5526 137.234L-12.2537 189.165C-18.3027 198.457 -19.1241 213.022 -14.2071 223.804L132.561 545.632C133.364 547.393 134.301 549.004 135.352 550.432L383.375 887.477C385.143 889.879 387.206 891.724 389.443 892.904L505.432 954.08Z" stroke="url(#paint5_linear_100_31)" stroke-width="4"/>
    <path opacity="0.101449" d="M491.185 961.119C506.219 970.075 523 950.915 518.754 929.642L485.877 764.923C485.251 761.784 484.176 758.857 482.71 756.298L267.726 381.06C266.86 379.549 265.865 378.179 264.76 376.976L52.9269 146.379C45.7395 138.555 35.1281 138.977 27.7687 147.379L-9.00586 189.366C-16.3651 197.768 -18.345 211.722 -13.7002 222.449L123.194 538.606C123.908 540.255 124.763 541.786 125.742 543.167L368.904 886.234C370.562 888.573 372.554 890.454 374.773 891.775L491.185 961.119Z" stroke="url(#paint6_linear_100_31)" stroke-width="4"/>
    <path opacity="0.115942" d="M477.054 967.089C492.815 977.488 512.714 960.847 509.336 940.093L484.236 785.911C483.758 782.979 482.81 780.198 481.439 777.707L275.384 403.441C274.577 401.976 273.631 400.623 272.561 399.406L61.9743 159.893C54.7457 151.672 43.1585 150.922 34.5524 158.119L-5.16524 191.333C-13.7712 198.531 -16.8844 211.574 -12.5331 222.201L114.236 531.808C114.88 533.381 115.674 534.861 116.605 536.223L354.207 884.107C355.789 886.422 357.742 888.362 359.969 889.831L477.054 967.089Z" stroke="url(#paint7_linear_100_31)" stroke-width="4"/>
    <path opacity="0.130435" d="M463.464 972.443C479.738 984.169 502.177 970.897 499.739 950.986L481.998 806.139C481.658 803.359 480.812 800.665 479.504 798.19L282.916 426.144C282.147 424.689 281.224 423.32 280.164 422.062L71.3916 174.471C64.1508 165.884 51.7664 163.783 42.0986 169.501L-0.994707 194.991C-10.6622 200.709 -14.7852 212.574 -10.7471 223.055L105.684 525.266C106.276 526.801 107.031 528.269 107.935 529.643L339.303 881.117C340.843 883.456 342.796 885.494 345.068 887.131L463.464 972.443Z" stroke="url(#paint8_linear_100_31)" stroke-width="4"/>
    <path opacity="0.144928" d="M450.66 977.564C467.208 990.444 491.279 981.056 489.818 962.293L479.178 825.593C478.97 822.917 478.209 820.253 476.934 817.735L290.305 449.138C289.555 447.656 288.632 446.236 287.554 444.905L81.1444 190.081C73.9218 181.164 61.004 177.622 50.5616 181.694L3.28114 200.131C-7.16122 204.203 -12.0876 214.704 -8.38145 224.992L97.5369 519.002C98.0902 520.538 98.8251 522.031 99.7278 523.453L324.216 877.288C325.749 879.704 327.746 881.887 330.106 883.724L450.66 977.564Z" stroke="url(#paint9_linear_100_31)" stroke-width="4"/>
    <path opacity="0.15942" d="M438.635 982.628C455.206 996.445 479.874 991.012 479.391 973.651L475.791 844.256C475.718 841.644 475.031 838.957 473.765 836.343L297.536 472.393C296.788 470.846 295.843 469.338 294.721 467.899L91.2061 206.697C84.0314 197.488 70.8764 192.528 59.9899 194.926L7.5563 206.475C-3.3301 208.873 -8.81304 217.939 -5.45446 227.987L89.8147 513.032C90.3398 514.603 91.0707 516.158 91.9926 517.666L308.995 872.636C310.553 875.186 312.636 877.565 315.129 879.644L438.635 982.628Z" stroke="url(#paint10_linear_100_31)" stroke-width="4"/>
    <path opacity="0.173913" d="M427.116 987.584C443.479 1002.1 467.805 1000.29 468.261 984.51L471.805 862.1C471.879 859.53 471.261 856.783 469.986 854.024L304.544 495.871C303.784 494.226 302.798 492.594 301.609 491.009L101.505 224.288C94.4062 214.826 81.2874 208.572 70.2653 209.395L11.8187 213.761C0.79663 214.584 -5.01173 222.252 -2.01336 232.021L82.5066 507.374C83.0089 509.011 83.7473 510.661 84.7067 512.291L293.666 867.194C295.276 869.928 297.479 872.557 300.145 874.922L427.116 987.584Z" stroke="url(#paint11_linear_100_31)" stroke-width="4"/>
    <path opacity="0.188406" d="M415.81 992.265C431.761 1007.25 455.039 1008.46 456.367 994.383L467.243 879.127C467.482 876.596 466.935 873.761 465.642 870.816L311.313 519.558C310.533 517.785 309.491 515.992 308.214 514.225L112.018 242.853C105.021 233.175 92.1579 225.814 81.2447 225.244L16.1907 221.848C5.27743 221.278 -0.672585 227.656 1.95617 237.107L75.6644 502.083C76.1443 503.809 76.9001 505.587 77.9117 507.372L278.316 861.036C279.996 864.001 282.351 866.93 285.219 869.624L415.81 992.265Z" stroke="url(#paint12_linear_100_31)" stroke-width="4"/>
    <path opacity="0.202899" d="M404.419 996.425C419.795 1011.64 441.583 1015.22 443.694 1002.88L462.095 895.291C462.519 892.809 462.056 889.874 460.741 886.714L317.794 543.39C316.991 541.462 315.881 539.475 314.498 537.491L122.689 262.335C115.817 252.476 103.362 244.218 92.7268 242.47L20.7794 230.642C10.1446 228.893 4.1817 234.123 6.43446 243.223L69.3057 497.182C69.7593 499.014 70.5357 500.945 71.6108 502.918L263.003 854.207C264.765 857.44 267.29 860.714 270.382 863.774L404.419 996.425Z" stroke="url(#paint13_linear_100_31)" stroke-width="4"/>
    <path opacity="0.217391" d="M392.745 999.871C407.418 1015.12 427.498 1020.44 430.289 1009.81L456.365 910.567C456.998 908.159 456.631 905.121 455.297 901.725L323.945 567.314C323.117 565.207 321.93 562.995 320.426 560.758L133.465 282.689C126.737 272.683 114.789 263.731 104.537 261.017L25.6764 240.134C15.4249 237.419 9.52862 241.645 11.4014 250.365L63.4483 492.708C63.867 494.658 64.6636 496.766 65.8102 498.958L247.783 846.773C249.63 850.305 252.339 853.964 255.665 857.419L392.745 999.871Z" stroke="url(#paint14_linear_100_31)" stroke-width="4"/>
    <path opacity="0.231884" d="M380.677 1002.46C394.559 1017.57 412.872 1024.08 416.236 1015.11L450.066 924.93C450.928 922.631 450.675 919.497 449.332 915.852L329.733 591.275C328.883 588.969 327.612 586.501 325.976 583.978L144.299 303.862C137.736 293.742 126.348 284.277 116.537 280.788L30.9397 250.343C21.1291 246.853 15.3427 250.21 16.8337 258.525L58.1071 488.702C58.4789 490.776 59.2937 493.082 60.5172 495.521L232.709 838.804C234.643 842.659 237.539 846.733 241.098 850.605L380.677 1002.46Z" stroke="url(#paint15_linear_100_31)" stroke-width="4"/>
    <path opacity="0.246377" d="M368.181 1004.13C381.211 1018.94 397.795 1026.22 401.625 1018.81L443.214 938.368C444.326 936.217 444.205 933.001 442.867 929.102L335.125 615.219C334.259 612.696 332.902 609.943 331.123 607.099L155.144 325.798C148.763 315.597 137.965 305.777 128.621 301.678L36.5965 261.303C27.253 257.204 21.5983 259.805 22.7074 267.692L53.2934 485.204C53.6026 487.403 54.4304 489.924 55.7334 492.639L217.834 830.371C219.848 834.566 222.929 839.081 226.711 843.379L368.181 1004.13Z" stroke="url(#paint16_linear_100_31)" stroke-width="4"/>
    <path opacity="0.26087" d="M355.262 1004.84C367.408 1019.23 382.358 1026.93 386.552 1020.97L435.833 950.87C437.211 948.91 437.243 945.633 435.927 941.48L340.097 639.095C339.223 636.339 337.779 633.269 335.85 630.071L165.958 348.437C159.776 338.188 149.576 328.146 140.706 323.574L42.6476 273.039C33.7783 268.468 28.2621 270.411 28.9907 277.849L49.0173 482.249C49.2447 484.57 50.075 487.323 51.4582 490.342L203.203 821.543C205.287 826.092 208.543 831.064 212.534 835.791L355.262 1004.84Z" stroke="url(#paint17_linear_100_31)" stroke-width="4"/>
    <path opacity="0.275362" d="M341.953 1004.59C353.202 1018.46 366.64 1026.34 371.101 1021.69L427.946 962.436C429.603 960.709 429.81 957.395 428.538 952.994L344.621 662.851C343.752 659.846 342.22 656.428 340.135 652.841L176.694 371.718C170.727 361.454 161.126 351.302 152.726 346.374L49.0771 285.57C40.6775 280.642 35.2995 282.007 35.6511 288.977L45.2806 479.869C45.4035 482.304 46.226 485.307 47.6878 488.659L188.855 812.388C190.996 817.298 194.413 822.738 198.591 827.887L341.953 1004.59Z" stroke="url(#paint18_linear_100_31)" stroke-width="4"/>
    <path opacity="0.289855" d="M328.303 1003.4C338.661 1016.67 350.716 1024.54 355.356 1021.08L419.586 973.07C421.529 971.618 421.931 968.293 420.726 963.655L348.677 686.441C347.828 683.175 346.211 679.373 343.966 675.362L187.311 395.576C181.575 385.331 172.567 375.166 164.628 369.978L55.8598 298.902C47.9203 293.714 42.6776 294.567 42.6568 301.05L42.0895 478.098C42.0814 480.636 42.8808 483.903 44.4177 487.62L174.834 802.974C177.016 808.251 180.574 814.163 184.912 819.72L328.303 1003.4Z" stroke="url(#paint19_linear_100_31)" stroke-width="4"/>
    <path opacity="0.304348" d="M314.367 1001.3C323.851 1013.91 334.653 1021.65 339.393 1019.23L410.782 982.783C413.015 981.643 413.633 978.336 412.522 973.474L352.242 709.818C351.433 706.275 349.738 702.057 347.33 697.586L197.769 419.949C192.279 409.759 183.855 399.662 176.364 394.294L62.9628 313.033C55.471 307.665 50.3582 308.061 49.9718 314.041L39.4457 476.963C39.2763 479.587 40.0327 483.134 41.6386 487.246L161.174 793.365C163.379 799.009 167.055 805.393 171.524 811.337L314.367 1001.3Z" stroke="url(#paint20_linear_100_31)" stroke-width="4"/>
    <path opacity="0.318841" d="M300.2 998.343C308.839 1010.26 318.511 1017.77 323.282 1016.27L401.563 991.589C404.087 990.794 404.941 987.535 403.953 982.469L355.297 732.939C354.55 729.109 352.786 724.433 350.214 719.464L208.025 444.771C202.798 434.673 194.946 424.716 187.89 419.235L70.3478 327.952C63.2908 322.471 58.305 322.459 57.5619 327.921L37.3492 476.493C36.9836 479.18 37.6744 483.023 39.3409 487.567L147.912 783.628C150.117 789.638 153.882 796.484 158.452 802.788L300.2 998.343Z" stroke="url(#paint21_linear_100_31)" stroke-width="4"/>
    <path opacity="0.333333" d="M285.861 994.571C293.691 1005.77 302.345 1012.99 307.087 1012.28L391.966 999.508C394.774 999.086 395.883 995.904 395.051 990.657L357.817 755.76C357.162 751.631 355.342 746.455 352.608 740.951L218.04 469.973C213.091 460.008 205.801 450.253 199.166 444.719L77.976 343.639C71.3412 338.105 66.4809 337.726 65.3926 342.656L35.7998 476.711C35.1987 479.435 35.797 483.591 37.5119 488.604L135.081 773.825C137.261 780.196 141.086 787.493 145.723 794.126L285.861 994.571Z" stroke="url(#paint22_linear_100_31)" stroke-width="4"/>
    <path opacity="0.347826" d="M271.409 990.045C278.471 1000.51 286.209 1007.4 290.872 1007.36L382.021 1006.56C385.107 1006.54 386.49 1003.46 385.85 998.061L359.784 778.24C359.258 773.803 357.4 768.084 354.509 762.005L227.777 495.491C223.122 485.7 216.381 476.204 210.156 470.668L85.8096 360.071C79.5848 354.534 74.8495 353.823 73.4303 358.211L34.7995 477.647C33.9185 480.371 34.3898 484.857 36.137 490.38L122.715 764.022C124.842 770.746 128.691 778.473 133.364 785.4L271.409 990.045Z" stroke="url(#paint23_linear_100_31)" stroke-width="4"/>
    <path opacity="0.362319" d="M256.897 984.818C263.235 994.555 270.149 1001.08 274.69 1001.6L371.763 1012.78C375.008 1013.15 376.683 1010.41 376.411 1005.21L376.379 1004.7L361.173 800.337C360.82 795.587 358.948 789.273 355.908 782.581L237.2 521.257C232.851 511.685 226.647 502.497 220.821 497.002L93.8062 377.217C87.9798 371.722 83.3706 370.712 81.6382 374.55L34.346 479.321C33.1349 482.004 33.4371 486.837 35.1955 492.913L110.842 754.281C112.887 761.346 116.723 769.478 121.397 776.66L256.897 984.818Z" stroke="url(#paint24_linear_100_31)" stroke-width="4"/>
    <path opacity="0.376812" d="M242.382 978.955C248.043 987.968 254.216 994.113 258.6 995.099L361.23 1018.18C364.827 1018.99 366.815 1016.23 366.675 1010.62L361.963 822.011C361.836 816.945 359.983 809.985 356.806 802.642L246.276 547.208C242.249 537.9 236.567 529.064 231.129 523.651L101.928 395.044C96.49 389.631 92.0113 388.353 89.9872 391.638L34.4416 481.761C32.8449 484.351 32.9261 489.547 34.6677 496.222L99.4968 744.666C101.425 752.057 105.207 760.564 109.852 767.959L242.382 978.955Z" stroke="url(#paint25_linear_100_31)" stroke-width="4"/>
    <path opacity="0.391304" d="M227.92 972.522C232.952 980.826 238.458 986.59 242.658 987.948L350.46 1022.81C354.285 1024.05 356.603 1021.49 356.778 1015.84L362.129 843.229C362.296 837.849 360.507 830.188 357.21 822.161L254.979 573.282C251.283 564.285 246.11 555.841 241.05 550.544L110.141 413.522C105.081 408.225 100.739 406.71 98.4483 409.441L35.0902 484.998C33.0466 487.435 32.8435 493.01 34.532 500.332L88.7117 735.25C90.4867 742.946 94.1702 751.788 98.7539 759.352L227.92 972.522Z" stroke="url(#paint26_linear_100_31)" stroke-width="4"/>
    <path opacity="0.405797" d="M213.548 965.569C217.998 973.185 222.904 978.569 226.898 980.218L339.475 1026.69C343.507 1028.36 346.17 1026.03 346.709 1020.38L361.628 863.929C362.17 858.248 360.505 849.83 357.111 841.089L263.265 599.404C259.911 590.766 255.231 582.747 250.539 577.599L118.393 432.596C113.702 427.448 109.503 425.725 106.976 427.91L36.2772 489.041C33.7202 491.252 33.1548 497.223 34.7434 505.24L78.502 726.082C80.0823 734.058 83.6209 743.186 88.113 750.875L213.548 965.569Z" stroke="url(#paint27_linear_100_31)" stroke-width="4"/>
    <path opacity="0.42029" d="M199.32 958.165C203.236 965.12 207.602 970.13 211.375 971.997L328.32 1029.86C332.532 1031.95 335.557 1029.9 336.51 1024.31L360.429 884.069C361.445 878.113 359.983 868.885 356.522 859.407L271.115 625.522C268.108 617.287 263.903 609.721 259.569 604.748L126.655 452.234C122.321 447.261 118.275 445.359 115.545 447.011L38.0074 493.925C34.8655 495.826 33.8406 502.201 35.2688 510.961L68.8999 717.237C70.24 725.456 73.5847 734.816 77.9561 742.581L199.32 958.165Z" stroke="url(#paint28_linear_100_31)" stroke-width="4"/>
    <path opacity="0.434783" d="M185.282 950.375C188.71 956.702 192.591 961.348 196.134 963.371L317.028 1032.37C321.393 1034.86 324.793 1033.11 326.213 1027.65L358.489 903.595C360.099 897.406 358.945 887.32 355.456 877.096L278.504 651.574C275.846 643.786 272.096 636.697 268.109 631.922L134.889 472.393C130.901 467.618 127.017 465.567 124.121 466.705L40.277 499.675C36.4758 501.17 34.8717 507.952 36.0625 517.496L59.9301 708.783C60.9806 717.203 64.0798 726.73 68.3031 734.523L185.282 950.375Z" stroke="url(#paint29_linear_100_31)" stroke-width="4"/>
    <path opacity="0.449275" d="M171.476 942.262C174.464 947.995 177.909 952.294 181.219 954.418L305.639 1034.24C310.125 1037.12 313.91 1035.72 315.852 1030.46L355.761 922.441C358.109 916.085 357.399 905.109 353.93 894.142L285.411 677.512C283.101 670.207 279.782 663.606 276.128 659.047L143.063 493.03C139.409 488.472 135.695 486.298 132.673 486.951L43.0799 506.316C38.5443 507.296 36.2126 514.477 37.0685 524.831L51.6164 700.796C52.3243 709.357 55.1257 718.975 59.175 726.746L171.476 942.262Z" stroke="url(#paint30_linear_100_31)" stroke-width="4"/>
    <path opacity="0.463768" d="M157.944 933.89C160.535 939.07 163.592 943.039 166.671 945.219L294.182 1035.53C298.758 1038.78 302.935 1037.76 305.45 1032.79L352.189 940.52C355.442 934.098 355.352 922.231 351.962 910.548L291.816 703.284C289.844 696.489 286.929 690.378 283.594 686.048L151.142 514.101C147.807 509.771 144.268 507.504 141.162 507.706L46.3996 513.87C41.0582 514.217 37.8193 521.763 38.2198 532.927L43.9736 693.348C44.2833 701.979 46.7355 711.602 50.5876 719.302L157.944 933.89Z" stroke="url(#paint31_linear_100_31)" stroke-width="4"/>
    <path opacity="0.478261" d="M144.721 925.321C146.962 929.994 149.675 933.656 152.53 935.859L282.693 1036.29C287.324 1039.86 291.894 1039.27 295.028 1034.69L347.728 957.729C352.072 951.385 352.821 938.674 349.578 926.33L297.701 728.844C296.055 722.575 293.514 716.95 290.478 712.853L159.098 535.563C156.062 531.466 152.704 529.131 149.55 528.922L50.2139 522.355C44.0044 521.944 39.6449 529.782 39.4447 541.718L37.0163 686.521C36.872 695.131 38.9269 704.662 42.5619 712.244L144.721 925.321Z" stroke="url(#paint32_linear_100_31)" stroke-width="4"/>
    <path opacity="0.492754" d="M131.843 916.615C133.776 920.832 136.19 924.216 138.835 926.417L271.194 1036.54C275.85 1040.42 280.807 1040.29 284.594 1036.21L342.347 973.94C347.977 967.871 349.825 954.443 346.809 941.526L303.054 754.153C301.713 748.409 299.511 743.249 296.752 739.381L166.904 557.374C164.145 553.506 160.963 551.121 157.796 550.545L54.4809 531.772C47.359 530.478 41.6379 538.478 40.6705 551.082L30.7464 680.393C30.0958 688.872 31.711 698.208 35.1131 705.629L131.843 916.615Z" stroke="url(#paint33_linear_100_31)" stroke-width="4"/>
    <path opacity="0.507246" d="M119.338 907.839C121.007 911.656 123.164 914.795 125.621 916.982L259.707 1036.34C264.359 1040.48 269.688 1040.87 274.145 1037.39L336.069 989.01C343.16 983.47 346.39 969.565 343.688 956.212L307.861 779.171C306.802 773.935 304.902 769.205 302.391 765.551L174.538 579.491C172.027 575.837 169.012 573.414 165.855 572.514L59.1324 542.109C51.0829 539.815 43.7524 547.753 41.8415 560.831L25.155 675.042C23.9541 683.262 25.1001 692.299 28.2597 699.526L119.338 907.839Z" stroke="url(#paint34_linear_100_31)" stroke-width="4"/>
    <path opacity="0.521739" d="M107.232 899.05C108.679 902.53 110.624 905.467 112.92 907.641L248.238 1035.72C252.866 1040.1 258.545 1041.04 263.664 1038.26L329.002 1002.8C337.673 998.095 342.546 984.097 340.249 970.493L312.114 803.865C311.309 799.098 309.672 794.749 307.375 791.28L181.985 601.875C179.689 598.407 176.82 595.948 173.684 594.762L64.0623 553.307C55.1123 549.922 45.9642 557.463 42.948 570.71L20.2204 670.533C18.4398 678.353 19.1 686.996 22.0141 694.008L107.232 899.05Z" stroke="url(#paint35_linear_100_31)" stroke-width="4"/>
    <path opacity="0.536232" d="M95.5401 890.304C96.8046 893.517 98.5829 896.305 100.756 898.481L236.78 1034.7C241.375 1039.3 247.377 1040.82 253.124 1038.83L321.39 1015.23C331.648 1011.68 338.324 998.123 336.52 984.505L315.808 828.198C315.231 823.846 313.814 819.812 311.693 816.486L189.235 624.49C187.113 621.164 184.359 618.658 181.237 617.211L69.1211 565.264C59.3534 560.738 48.2964 567.428 44.065 580.423L15.9047 666.909C13.5339 674.19 13.71 682.36 16.3841 689.155L95.5401 890.304Z" stroke="url(#paint36_linear_100_31)" stroke-width="4"/>
    <path opacity="0.550725" d="M84.2733 881.655C85.3933 884.675 87.05 887.372 89.1419 889.58L225.315 1033.29C229.883 1038.11 236.18 1040.24 242.496 1039.11L313.602 1026.33C325.294 1024.23 333.745 1011.74 332.507 998.384L318.939 852.136C318.568 848.129 317.332 844.336 315.342 841.097L196.284 647.304C194.294 644.065 191.612 641.481 188.479 639.783L74.1277 577.817C63.6873 572.159 50.8316 577.484 45.3706 589.727L12.1588 664.187C9.20909 670.8 8.91759 678.443 11.3636 685.039L84.2733 881.655Z" stroke="url(#paint37_linear_100_31)" stroke-width="4"/>
    <path opacity="0.565217" d="M73.4382 873.149C74.4469 876.053 76.0276 878.726 78.0867 881.008L213.828 1031.49C218.245 1036.38 224.544 1039.14 231.118 1039.08L231.755 1039.06L306.063 1036.32C318.864 1035.85 328.812 1025.01 328.187 1012.21L321.509 875.64C321.326 871.906 320.236 868.272 318.333 865.055L203.13 670.288C201.226 667.07 198.567 664.364 195.382 662.405L78.9087 590.774C67.997 584.064 53.7059 587.562 47.1263 598.553L8.93377 662.354C5.43749 668.194 4.70781 675.284 6.94142 681.714L73.4382 873.149Z" stroke="url(#paint38_linear_100_31)" stroke-width="4"/>
    <path opacity="0.57971" d="M63.0461 864.829C63.9698 867.688 65.5157 870.405 67.5912 872.815L202.317 1029.29C206.891 1034.6 213.693 1038.04 220.886 1038.67L299.088 1045.54C312.547 1046.72 323.504 1037.94 323.505 1025.97L323.507 898.673C323.507 895.146 322.535 891.592 320.675 888.324L209.759 693.419C207.899 690.15 205.209 687.267 201.923 685.021L83.353 603.964C72.2044 596.343 57.0479 597.745 49.5785 607.088L6.17772 661.375C2.18599 666.368 1.05493 672.897 3.09041 679.2L63.0461 864.829Z" stroke="url(#paint39_linear_100_31)" stroke-width="4"/>
    <path opacity="0.594203" d="M53.1166 856.733C53.9734 859.613 55.5208 862.442 57.66 865.039L190.804 1026.71C195.413 1032.3 202.415 1036.41 209.891 1037.89L292.766 1054.32C306.394 1057.03 317.786 1050.44 318.39 1039.5L324.924 921.189C325.11 917.819 324.236 914.276 322.383 910.889L216.148 716.666C214.295 713.278 211.522 710.153 208.085 707.581L87.4465 617.281C76.2967 608.935 60.9204 608.242 52.8618 615.721L3.85452 661.204C-0.566609 665.307 -2.0582 671.279 -0.212158 677.485L53.1166 856.733Z" stroke="url(#paint40_linear_100_31)" stroke-width="4"/>
    <path opacity="0.608696" d="M43.6834 848.911C44.4828 851.863 46.0601 854.867 48.3045 857.712L179.338 1023.78C183.994 1029.68 191.146 1034.43 198.796 1036.71L286.956 1062.92C300.32 1066.9 311.637 1062.38 312.793 1052.61L325.743 943.139C326.127 939.897 325.342 936.311 323.468 932.742L222.26 739.99C220.387 736.421 217.489 732.993 213.858 730.051L91.2678 630.707C80.3237 621.838 65.2955 619.288 56.9559 624.883L1.94226 661.794C-2.83113 664.997 -4.64135 670.419 -2.98336 676.543L43.6834 848.911Z" stroke="url(#paint41_linear_100_31)" stroke-width="4"/>
    <path opacity="0.623188" d="M34.7747 841.415C35.5175 844.479 37.1454 847.714 39.5293 850.864L167.97 1020.55C172.671 1026.76 179.917 1032.13 187.632 1035.12L281.384 1071.42C294.165 1076.37 305.039 1073.64 306.678 1065.08L325.943 964.466C326.54 961.345 325.843 957.679 323.931 953.878L228.047 763.34C226.134 759.539 223.08 755.75 219.224 752.396L94.9204 644.283C84.3442 635.084 70.0688 631.047 61.7136 634.893L0.426856 663.103C-4.61685 665.425 -6.70629 670.304 -5.24203 676.345L34.7747 841.415Z" stroke="url(#paint42_linear_100_31)" stroke-width="4"/>
    <path opacity="0.637681" d="M26.4249 834.302C27.1044 837.504 28.7969 841.02 31.3473 844.529L156.761 1017.08C161.494 1023.59 168.769 1029.52 176.455 1033.13L275.786 1079.77C287.785 1085.4 298.006 1084.15 300.051 1076.78L325.515 985.116C326.345 982.126 325.742 978.359 323.782 974.287L233.47 786.658C231.509 782.585 228.278 778.386 224.18 774.586L98.5135 658.074C88.419 648.715 75.1263 643.591 66.9543 645.909L-0.690405 665.099C-5.92486 666.584 -8.25188 670.934 -6.99078 676.875L26.4249 834.302Z" stroke="url(#paint43_linear_100_31)" stroke-width="4"/>
    <path opacity="0.652174" d="M18.6577 827.631C19.2611 830.985 21.0246 834.825 23.761 838.743L145.75 1013.43C150.497 1020.23 157.739 1026.65 165.317 1030.78L269.956 1087.88C281.078 1093.95 290.555 1093.84 292.93 1087.61L324.451 1005.04C325.533 1002.2 325.033 998.327 323.024 993.953L238.487 809.882C236.478 805.508 233.061 800.858 228.716 796.587L102.116 672.139C92.575 662.76 80.3607 656.908 72.5046 657.951L-1.40557 667.765C-6.75813 668.475 -9.28842 672.311 -8.24171 678.128L18.6577 827.631Z" stroke="url(#paint44_linear_100_31)" stroke-width="4"/>
    <path opacity="0.666667" d="M11.495 821.457C12.0041 824.969 13.8403 829.172 16.7767 833.546L134.981 1009.65C139.717 1016.71 146.867 1023.55 154.275 1028.12L263.774 1095.63C273.996 1101.94 282.717 1102.71 285.352 1097.54L322.755 1024.19C324.104 1021.54 323.724 1017.56 321.673 1012.86L243.07 832.954C241.019 828.259 237.415 823.125 232.829 818.367L105.775 686.522C96.8271 677.237 85.6946 670.947 78.232 670.959L-1.71058 671.095C-7.11875 671.104 -9.81947 674.443 -8.99829 680.107L11.495 821.457Z" stroke="url(#paint45_linear_100_31)" stroke-width="4"/>
    <path opacity="0.681159" d="M4.94827 815.833C5.34034 819.5 7.2458 824.102 10.391 828.976L124.476 1005.8C129.177 1013.09 136.184 1020.27 143.377 1025.19L257.183 1102.95C266.526 1109.33 274.522 1110.76 277.351 1106.56L320.433 1042.54C322.065 1040.11 321.818 1036.02 319.735 1031L247.191 855.817C245.108 850.788 241.326 845.147 236.516 839.897L109.505 701.248C101.165 692.144 91.0685 685.638 84.0378 684.838L-1.60256 675.093C-7.01491 674.477 -9.85879 677.343 -9.27292 682.824L4.94827 815.833Z" stroke="url(#paint46_linear_100_31)" stroke-width="4"/>
    <path opacity="0.695652" d="M-0.97062 810.805C-0.722354 814.619 1.2446 819.653 4.60311 825.07L114.259 1001.92C118.898 1009.4 125.721 1016.86 132.666 1022.05L250.169 1109.75C258.68 1116.11 266.001 1118.03 268.969 1114.69L317.5 1060.06C319.424 1057.89 319.327 1053.71 317.228 1048.34L250.833 878.42C248.734 873.05 244.787 866.883 239.773 861.142L113.309 716.326C105.575 707.47 96.4415 700.911 89.8548 699.483L-1.08039 679.769C-6.45517 678.603 -9.41923 681.019 -9.07642 686.287L-0.97062 810.805Z" stroke="url(#paint47_linear_100_31)" stroke-width="4"/>
    <path opacity="0.710145" d="M-6.25764 806.415C-6.18389 810.361 -4.16695 815.862 -0.594306 821.861L104.346 998.061C108.897 1005.7 115.502 1013.37 122.178 1018.75L242.745 1116.01C250.483 1122.25 257.186 1124.52 260.245 1121.95L313.969 1076.72C316.193 1074.85 316.265 1070.59 314.169 1064.87L253.979 900.718C251.883 895.001 247.79 888.296 242.597 882.072L117.176 731.755C110.035 723.196 101.784 716.7 95.6367 714.797L-0.148131 685.131C-5.4522 683.488 -8.51658 685.479 -8.42274 690.507L-6.25764 806.415Z" stroke="url(#paint48_linear_100_31)" stroke-width="4"/>
    <path opacity="0.724638" d="M-10.9092 802.7C-11.0447 806.759 -8.9938 812.762 -5.20943 819.382L94.7492 994.252C99.1898 1002.02 105.547 1009.82 111.941 1015.35L234.939 1121.68C241.966 1127.75 248.107 1130.28 251.217 1128.38L309.857 1092.53C312.386 1090.98 312.647 1086.65 310.575 1080.59L256.617 922.666C254.545 916.602 250.329 909.349 244.984 902.658L121.089 747.525C114.519 739.299 107.071 732.947 101.349 730.691L1.18492 691.191C-4.0223 689.137 -7.17121 690.726 -7.33026 695.489L-10.9092 802.7Z" stroke="url(#paint49_linear_100_31)" stroke-width="4"/>
    <path opacity="0.73913" d="M-14.9205 799.699C-15.304 803.846 -13.2404 810.385 -9.24993 817.667L85.4843 990.536C89.7908 998.395 95.8779 1006.27 101.982 1011.89L226.787 1126.76C233.163 1132.63 238.797 1135.33 241.922 1134.02L305.186 1107.45C308.024 1106.26 308.493 1101.88 306.469 1095.47L258.738 944.228C256.715 937.817 252.402 930.014 246.935 922.871L125.029 763.619C119.007 755.751 112.284 749.599 106.968 747.088L2.90672 697.954C-2.18287 695.551 -5.40053 696.763 -5.81447 701.239L-14.9205 799.699Z" stroke="url(#paint50_linear_100_31)" stroke-width="4"/>
    <path opacity="0.753623" d="M-18.2935 797.44C-18.9686 801.645 -16.9184 808.759 -12.7313 816.741L76.5583 986.946C80.7092 994.859 86.5082 1002.76 92.3187 1008.43L218.326 1131.25C224.109 1136.88 229.28 1139.7 232.392 1138.89L299.974 1121.5C303.121 1120.69 303.821 1116.27 301.874 1109.52L260.333 965.368C258.387 958.612 254.006 950.255 248.444 942.682L128.971 780.016C123.469 772.524 117.403 766.608 112.471 763.923L5.00064 705.426C0.0449495 702.729 -3.22921 703.587 -3.8984 707.756L-18.2935 797.44Z" stroke="url(#paint51_linear_100_31)" stroke-width="4"/>
    <path opacity="0.768116" d="M-21.0262 795.954C-22.0409 800.182 -20.038 807.91 -15.6674 816.63L67.9818 983.517C71.9568 991.447 77.4534 999.325 82.9687 1004.99L209.595 1135.16C214.837 1140.54 219.588 1143.42 222.664 1143.06L294.247 1134.66C297.701 1134.25 298.656 1129.82 296.817 1122.72L261.395 986.053C259.556 978.957 255.143 970.047 249.515 962.066L132.894 796.693C127.883 789.586 122.41 783.931 117.84 781.136L7.44759 713.608C2.63933 710.667 -0.679775 711.191 -1.60276 715.036L-21.0262 795.954Z" stroke="url(#paint52_linear_100_31)" stroke-width="4"/>
    <path opacity="0.782609" d="M-23.1187 795.268C-24.5275 799.477 -22.6133 807.862 -18.0758 817.36L59.7616 980.281C63.5412 988.192 68.7238 995.995 73.9443 1001.63L200.631 1138.49C205.38 1143.62 209.747 1146.52 212.767 1146.53L288.024 1146.93C291.785 1146.95 293.022 1142.51 291.325 1135.08L261.918 1006.26C260.222 998.824 255.812 989.363 250.146 980.997L136.773 813.624C132.224 806.908 127.289 801.527 123.059 798.672L10.2247 722.495C5.57489 719.356 2.22209 719.568 1.04858 723.074L-23.1187 795.268Z" stroke="url(#paint53_linear_100_31)" stroke-width="4"/>
    <path opacity="0.797101" d="M-24.5679 795.41C-26.4308 799.549 -24.6578 808.638 -19.9757 818.95L51.9068 977.268C55.4729 985.122 60.3334 992.809 65.261 998.388L191.475 1141.28C195.774 1146.15 199.79 1149.04 202.736 1149.37L281.333 1158.33C285.399 1158.79 286.948 1154.36 285.433 1146.6L261.898 1025.95C260.384 1018.19 256.019 1008.18 250.341 999.454L140.588 830.781C136.473 824.457 132.025 819.359 128.115 816.485L13.3117 732.081C8.82951 728.786 5.45257 728.704 4.03363 731.857L-24.5679 795.41Z" stroke="url(#paint54_linear_100_31)" stroke-width="4"/>
    <path opacity="0.811594" d="M-25.3744 796.406C-27.7584 800.418 -26.1928 810.257 -21.3945 821.419L44.4204 974.51C47.7557 982.269 52.2862 989.796 56.9233 995.286L182.159 1143.55C186.046 1148.15 189.739 1151 192.599 1151.6L274.199 1168.85C278.566 1169.77 280.461 1165.37 279.174 1157.28L261.325 1045.11C260.039 1037.02 255.765 1026.48 250.103 1017.42L144.312 848.136C140.604 842.203 136.599 837.39 132.989 834.529L16.6779 742.356C12.3712 738.943 8.98213 738.588 7.325 741.377L-25.3744 796.406Z" stroke="url(#paint55_linear_100_31)" stroke-width="4"/>
    <path opacity="0.826087" d="M-25.5334 798.283C-28.5129 802.099 -27.2382 812.738 -22.3585 824.781L37.3082 972.035C40.397 979.658 44.5934 986.99 48.9434 992.365L172.719 1145.31C176.23 1149.65 179.624 1152.44 182.387 1153.27L266.648 1178.51C271.313 1179.91 273.593 1175.54 272.587 1167.15L260.194 1063.71C259.187 1055.31 255.057 1044.24 249.438 1034.87L147.926 865.659C144.598 860.112 140.996 855.584 137.667 852.763L20.2998 753.304C16.1751 749.809 12.7841 749.199 10.8981 751.614L-25.5334 798.283Z" stroke="url(#paint56_linear_100_31)" stroke-width="4"/>
    <path opacity="0.84058" d="M-25.0399 801.069C-28.6963 804.61 -27.8183 816.094 -22.9016 829.043L30.5737 969.871C33.4015 977.318 37.2602 984.418 41.3265 989.655L163.189 1146.6C166.354 1150.68 169.473 1153.4 172.13 1154.41L258.71 1187.32C263.668 1189.2 266.381 1184.9 265.717 1176.21L258.494 1081.72C257.83 1073.03 253.902 1061.44 248.351 1051.79L151.408 883.323C148.434 878.154 145.199 873.906 142.134 871.146L24.1475 764.908C20.2106 761.363 16.8301 760.519 14.7271 762.556L-25.0399 801.069Z" stroke="url(#paint57_linear_100_31)" stroke-width="4"/>
    <path opacity="0.855072" d="M-23.8855 804.797C-28.3078 807.971 -27.9611 820.34 -23.0612 834.211L24.2173 968.042C26.7717 975.273 30.2936 982.108 34.0808 987.186L153.6 1147.45C156.449 1151.27 159.312 1153.91 161.856 1155.06L250.415 1195.29C255.662 1197.67 258.861 1193.46 258.61 1184.49L256.217 1099.13C255.966 1090.16 252.31 1078.08 246.853 1068.18L154.739 901.095C152.093 896.295 149.192 892.323 146.375 889.641L28.1944 777.15C24.4495 773.585 21.0895 772.524 18.7841 774.179L-23.8855 804.797Z" stroke="url(#paint58_linear_100_31)" stroke-width="4"/>
    <path opacity="0.869565" d="M-22.0624 809.502C-27.345 812.201 -27.6991 825.481 -22.8828 840.273L18.2408 966.571C20.5117 973.545 23.6979 980.087 27.2115 984.988L143.984 1147.88C146.545 1151.45 149.171 1154 151.599 1155.27L241.796 1202.45C247.325 1205.34 251.073 1201.24 251.319 1192.03L253.349 1115.9C253.594 1106.69 250.29 1094.14 244.953 1084.02L157.9 918.947C155.557 914.505 152.961 910.8 150.375 908.208L32.4103 790.004C28.8608 786.448 25.5338 785.189 23.043 786.462L-22.0624 809.502Z" stroke="url(#paint59_linear_100_31)" stroke-width="4"/>
    <path opacity="0.884058" d="M-19.5641 815.22C-25.8053 817.322 -27.0725 831.513 -22.4204 847.206L12.6429 965.479C14.623 972.158 17.4791 978.381 20.7262 983.091L134.372 1147.93C136.669 1151.26 139.076 1153.71 141.385 1155.06L232.885 1208.81C238.691 1212.22 243.061 1208.28 243.901 1198.87L249.873 1131.99C250.714 1122.58 247.854 1109.62 242.664 1099.31L160.872 936.849C158.808 932.751 156.49 929.304 154.118 926.811L36.7685 803.449C33.4156 799.924 30.1321 798.488 27.4756 799.382L-19.5641 815.22Z" stroke="url(#paint60_linear_100_31)" stroke-width="4"/>
    <path opacity="0.898551" d="M-16.3919 821.995C-23.6882 823.364 -26.1298 838.418 -21.7384 854.959L7.41875 964.783C9.1046 971.132 11.639 977.018 14.6285 981.525L124.79 1147.63C126.848 1150.73 129.055 1153.08 131.244 1154.5L223.718 1214.41C229.793 1218.35 234.867 1214.61 236.416 1205.07L245.774 1147.36C247.323 1137.82 245.014 1124.5 239.998 1114.04L163.639 954.772C161.831 951.001 159.762 947.799 157.589 945.409L41.2391 817.457C38.0817 813.984 34.8518 812.387 32.0509 812.912L-16.3919 821.995Z" stroke="url(#paint61_linear_100_31)" stroke-width="4"/>
    <path opacity="0.913043" d="M-12.5616 829.865C-21.0007 830.352 -24.9281 846.15 -20.9098 863.448L2.56428 964.493C3.95638 970.485 6.18173 976.023 8.92564 980.324L115.267 1147.02C117.11 1149.9 119.135 1152.15 121.21 1153.62L214.333 1219.28C220.667 1223.74 226.538 1220.29 228.921 1210.71L241.04 1161.96C243.423 1152.37 241.785 1138.79 236.971 1128.21L166.186 972.688C164.609 969.223 162.764 966.25 160.772 963.963L45.7971 832C42.8305 828.595 39.6614 826.854 36.7378 827.022L-12.5616 829.865Z" stroke="url(#paint62_linear_100_31)" stroke-width="4"/>
    <path opacity="0.927536" d="M-8.12209 838.858C-17.7713 838.309 -23.5336 854.621 -20.0163 872.527L-1.92706 964.621C-0.823838 970.237 1.10805 975.427 3.62172 979.524L105.827 1146.12C107.479 1148.81 109.341 1150.97 111.308 1152.46L204.77 1223.45C211.348 1228.45 218.112 1225.39 221.464 1215.9L235.669 1175.69C239.021 1166.2 238.183 1152.48 233.601 1141.84L168.499 990.568C167.129 987.384 165.482 984.62 163.652 982.432L50.4189 847.052C47.634 843.722 44.5296 841.852 41.5032 841.679L-8.12209 838.858Z" stroke="url(#paint63_linear_100_31)" stroke-width="4"/>
    <path opacity="0.942029" d="M-3.18032 848.97C-14.0701 847.238 -22.0216 863.684 -19.1439 881.987L-6.06518 965.168C-5.24205 970.403 -3.58199 975.257 -1.27828 979.165L96.4888 1144.98C97.9753 1147.51 99.698 1149.58 101.57 1151.1L195.068 1226.98C201.874 1232.51 209.617 1229.97 214.069 1220.76L229.685 1188.46C234.137 1179.26 234.229 1165.59 229.91 1154.92L170.57 1008.38C169.382 1005.45 167.906 1002.87 166.216 1000.77L55.0868 862.586C52.4681 859.33 49.424 857.338 46.3092 856.842L-3.18032 848.97Z" stroke="url(#paint64_linear_100_31)" stroke-width="4"/>
    <path opacity="0.956522" d="M2.07239 860.143C-10.0329 857.102 -20.4606 873.12 -18.3626 891.533L-9.86276 966.135C-9.30845 971 -7.89563 975.548 -5.77642 979.291L87.2693 1143.63C88.6172 1146.02 90.2249 1148.02 92.0208 1149.57L185.265 1229.92C192.276 1235.96 201.058 1234.13 206.712 1225.44L223.163 1200.17C228.817 1191.49 229.946 1178.1 225.922 1167.47L172.393 1026.11C171.362 1023.39 170.029 1020.96 168.455 1018.92L59.7876 878.577C57.3125 875.38 54.3153 873.266 51.1171 872.463L2.07239 860.143Z" stroke="url(#paint65_linear_100_31)" stroke-width="4"/>
    <path opacity="0.971014" d="M7.34351 872.223C-5.87733 867.793 -18.8945 882.655 -17.7039 900.82L-13.3325 967.519C-13.0362 972.039 -11.845 976.325 -9.87968 979.944L78.1758 1142.11C79.4132 1144.38 80.9354 1146.36 82.6809 1147.95L175.4 1232.33C182.587 1238.87 192.406 1237.94 199.298 1230.07L216.245 1210.72C223.137 1202.86 225.365 1190.03 221.668 1179.5L173.966 1043.72C173.068 1041.17 171.851 1038.85 170.363 1036.85L64.5162 895.004C62.1538 891.838 59.1778 889.59 55.8876 888.488L7.34351 872.223Z" stroke="url(#paint66_linear_100_31)" stroke-width="4"/>
    <path opacity="0.985507" d="M12.2615 884.949C-1.88712 879.12 -17.3151 892.022 -17.1278 909.527L-16.4884 969.315C-16.4432 973.531 -15.4501 977.611 -13.6043 981.161L69.2115 1140.42C70.3677 1142.65 71.8387 1144.62 73.567 1146.28L165.504 1234.26C172.83 1241.27 183.599 1241.46 191.663 1234.72L209.151 1220.09C217.215 1213.35 220.522 1201.39 217.184 1191.04L175.298 1061.2C174.511 1058.76 173.378 1056.5 171.945 1054.51L69.2739 911.852C66.9855 908.673 63.9928 906.265 60.5855 904.861L12.2615 884.949Z" stroke="url(#paint67_linear_100_31)" stroke-width="4"/>
    <path d="M16.4534 897.976C1.64946 890.823 -15.6618 901.062 -16.5225 917.481L-19.3548 971.513C-19.5619 975.467 -18.7447 979.407 -16.9827 982.953L60.3688 1138.6C61.4725 1140.82 62.9285 1142.84 64.6797 1144.6L155.595 1235.77C163.018 1243.21 174.543 1244.68 183.59 1239.32L202.128 1228.36C211.175 1223.01 215.444 1212.2 212.496 1202.11L176.386 1078.53C175.69 1076.15 174.613 1073.89 173.199 1071.86L74.0522 929.106C71.7936 925.854 68.7342 923.24 65.1694 921.518L16.4534 897.976Z" stroke="url(#paint68_linear_100_31)" stroke-width="4"/>
    <defs>
        <linearGradient id="paint0_linear_100_31" x1="586.172" y1="898.096" x2="-131.894" y2="833.972" gradientUnits="userSpaceOnUse">
            <stop stop-color="#2E0356"/>
            <stop offset="1" stop-color="#00F0FF"/>
        </linearGradient>
        <linearGradient id="paint1_linear_100_31" x1="579.1" y1="916.425" x2="-178.15" y2="793.605" gradientUnits="userSpaceOnUse">
            <stop stop-color="#2E0356"/>
            <stop offset="1" stop-color="#00F0FF"/>
        </linearGradient>
        <linearGradient id="paint2_linear_100_31" x1="571.215" y1="933.421" x2="-222.505" y2="736.111" gradientUnits="userSpaceOnUse">
            <stop stop-color="#2E0356"/>
            <stop offset="1" stop-color="#00F0FF"/>
        </linearGradient>
        <linearGradient id="paint3_linear_100_31" x1="562.551" y1="949.08" x2="-259.646" y2="658.631" gradientUnits="userSpaceOnUse">
            <stop stop-color="#2E0356"/>
            <stop offset="1" stop-color="#00F0FF"/>
        </linearGradient>
        <linearGradient id="paint4_linear_100_31" x1="553.137" y1="963.404" x2="-281.475" y2="559.876" gradientUnits="userSpaceOnUse">
            <stop stop-color="#2E0356"/>
            <stop offset="1" stop-color="#00F0FF"/>
        </linearGradient>
        <linearGradient id="paint5_linear_100_31" x1="543.005" y1="976.396" x2="-277.257" y2="442.413" gradientUnits="userSpaceOnUse">
            <stop stop-color="#2E0356"/>
            <stop offset="1" stop-color="#00F0FF"/>
        </linearGradient>
        <linearGradient id="paint6_linear_100_31" x1="532.193" y1="988.064" x2="-235.786" y2="315.42" gradientUnits="userSpaceOnUse">
            <stop stop-color="#2E0356"/>
            <stop offset="1" stop-color="#00F0FF"/>
        </linearGradient>
        <linearGradient id="paint7_linear_100_31" x1="520.737" y1="998.421" x2="-150.429" y2="195.847" gradientUnits="userSpaceOnUse">
            <stop stop-color="#2E0356"/>
            <stop offset="1" stop-color="#00F0FF"/>
        </linearGradient>
        <linearGradient id="paint8_linear_100_31" x1="508.674" y1="1007.48" x2="-25.2461" y2="104.817" gradientUnits="userSpaceOnUse">
            <stop stop-color="#2E0356"/>
            <stop offset="1" stop-color="#00F0FF"/>
        </linearGradient>
        <linearGradient id="paint9_linear_100_31" x1="496.044" y1="1015.27" x2="123.096" y2="58.874" gradientUnits="userSpaceOnUse">
            <stop stop-color="#2E0356"/>
            <stop offset="1" stop-color="#00F0FF"/>
        </linearGradient>
        <linearGradient id="paint10_linear_100_31" x1="482.897" y1="1021.81" x2="271.48" y2="61.9681" gradientUnits="userSpaceOnUse">
            <stop stop-color="#2E0356"/>
            <stop offset="1" stop-color="#00F0FF"/>
        </linearGradient>
        <linearGradient id="paint11_linear_100_31" x1="469.247" y1="1027.11" x2="400.383" y2="105.141" gradientUnits="userSpaceOnUse">
            <stop stop-color="#2E0356"/>
            <stop offset="1" stop-color="#00F0FF"/>
        </linearGradient>
        <linearGradient id="paint12_linear_100_31" x1="455.164" y1="1031.23" x2="499.961" y2="173.207" gradientUnits="userSpaceOnUse">
            <stop stop-color="#2E0356"/>
            <stop offset="1" stop-color="#00F0FF"/>
        </linearGradient>
        <linearGradient id="paint13_linear_100_31" x1="440.683" y1="1034.2" x2="569.313" y2="251.764" gradientUnits="userSpaceOnUse">
            <stop stop-color="#2E0356"/>
            <stop offset="1" stop-color="#00F0FF"/>
        </linearGradient>
        <linearGradient id="paint14_linear_100_31" x1="425.847" y1="1036.04" x2="612.639" y2="330.661" gradientUnits="userSpaceOnUse">
            <stop stop-color="#2E0356"/>
            <stop offset="1" stop-color="#00F0FF"/>
        </linearGradient>
        <linearGradient id="paint15_linear_100_31" x1="410.7" y1="1036.81" x2="635.731" y2="404.131" gradientUnits="userSpaceOnUse">
            <stop stop-color="#2E0356"/>
            <stop offset="1" stop-color="#00F0FF"/>
        </linearGradient>
        <linearGradient id="paint16_linear_100_31" x1="395.286" y1="1036.54" x2="644.03" y2="469.593" gradientUnits="userSpaceOnUse">
            <stop stop-color="#2E0356"/>
            <stop offset="1" stop-color="#00F0FF"/>
        </linearGradient>
        <linearGradient id="paint17_linear_100_31" x1="379.652" y1="1035.28" x2="641.923" y2="526.375" gradientUnits="userSpaceOnUse">
            <stop stop-color="#2E0356"/>
            <stop offset="1" stop-color="#00F0FF"/>
        </linearGradient>
        <linearGradient id="paint18_linear_100_31" x1="363.839" y1="1033.08" x2="632.686" y2="574.798" gradientUnits="userSpaceOnUse">
            <stop stop-color="#2E0356"/>
            <stop offset="1" stop-color="#00F0FF"/>
        </linearGradient>
        <linearGradient id="paint19_linear_100_31" x1="347.895" y1="1029.99" x2="618.674" y2="615.615" gradientUnits="userSpaceOnUse">
            <stop stop-color="#2E0356"/>
            <stop offset="1" stop-color="#00F0FF"/>
        </linearGradient>
        <linearGradient id="paint20_linear_100_31" x1="331.864" y1="1026.06" x2="601.541" y2="649.719" gradientUnits="userSpaceOnUse">
            <stop stop-color="#2E0356"/>
            <stop offset="1" stop-color="#00F0FF"/>
        </linearGradient>
        <linearGradient id="paint21_linear_100_31" x1="315.787" y1="1021.35" x2="582.44" y2="677.986" gradientUnits="userSpaceOnUse">
            <stop stop-color="#2E0356"/>
            <stop offset="1" stop-color="#00F0FF"/>
        </linearGradient>
        <linearGradient id="paint22_linear_100_31" x1="299.708" y1="1015.9" x2="562.173" y2="701.221" gradientUnits="userSpaceOnUse">
            <stop stop-color="#2E0356"/>
            <stop offset="1" stop-color="#00F0FF"/>
        </linearGradient>
        <linearGradient id="paint23_linear_100_31" x1="283.671" y1="1009.79" x2="541.3" y2="720.13" gradientUnits="userSpaceOnUse">
            <stop stop-color="#2E0356"/>
            <stop offset="1" stop-color="#00F0FF"/>
        </linearGradient>
        <linearGradient id="paint24_linear_100_31" x1="267.716" y1="1003.06" x2="520.213" y2="735.326" gradientUnits="userSpaceOnUse">
            <stop stop-color="#2E0356"/>
            <stop offset="1" stop-color="#00F0FF"/>
        </linearGradient>
        <linearGradient id="paint25_linear_100_31" x1="251.884" y1="995.784" x2="499.192" y2="747.334" gradientUnits="userSpaceOnUse">
            <stop stop-color="#2E0356"/>
            <stop offset="1" stop-color="#00F0FF"/>
        </linearGradient>
        <linearGradient id="paint26_linear_100_31" x1="236.222" y1="988.021" x2="478.439" y2="756.611" gradientUnits="userSpaceOnUse">
            <stop stop-color="#2E0356"/>
            <stop offset="1" stop-color="#00F0FF"/>
        </linearGradient>
        <linearGradient id="paint27_linear_100_31" x1="220.753" y1="979.821" x2="458.087" y2="763.53" gradientUnits="userSpaceOnUse">
            <stop stop-color="#2E0356"/>
            <stop offset="1" stop-color="#00F0FF"/>
        </linearGradient>
        <linearGradient id="paint28_linear_100_31" x1="205.521" y1="971.251" x2="438.247" y2="768.432" gradientUnits="userSpaceOnUse">
            <stop stop-color="#2E0356"/>
            <stop offset="1" stop-color="#00F0FF"/>
        </linearGradient>
        <linearGradient id="paint29_linear_100_31" x1="190.561" y1="962.373" x2="419.001" y2="771.606" gradientUnits="userSpaceOnUse">
            <stop stop-color="#2E0356"/>
            <stop offset="1" stop-color="#00F0FF"/>
        </linearGradient>
        <linearGradient id="paint30_linear_100_31" x1="175.91" y1="953.249" x2="400.41" y2="773.308" gradientUnits="userSpaceOnUse">
            <stop stop-color="#2E0356"/>
            <stop offset="1" stop-color="#00F0FF"/>
        </linearGradient>
        <linearGradient id="paint31_linear_100_31" x1="161.596" y1="943.94" x2="382.523" y2="773.76" gradientUnits="userSpaceOnUse">
            <stop stop-color="#2E0356"/>
            <stop offset="1" stop-color="#00F0FF"/>
        </linearGradient>
        <linearGradient id="paint32_linear_100_31" x1="147.651" y1="934.507" x2="365.379" y2="773.161" gradientUnits="userSpaceOnUse">
            <stop stop-color="#2E0356"/>
            <stop offset="1" stop-color="#00F0FF"/>
        </linearGradient>
        <linearGradient id="paint33_linear_100_31" x1="134.105" y1="925.01" x2="349.012" y2="771.69" gradientUnits="userSpaceOnUse">
            <stop stop-color="#2E0356"/>
            <stop offset="1" stop-color="#00F0FF"/>
        </linearGradient>
        <linearGradient id="paint34_linear_100_31" x1="120.983" y1="915.507" x2="333.452" y2="769.507" gradientUnits="userSpaceOnUse">
            <stop stop-color="#2E0356"/>
            <stop offset="1" stop-color="#00F0FF"/>
        </linearGradient>
        <linearGradient id="paint35_linear_100_31" x1="108.311" y1="906.058" x2="318.724" y2="766.759" gradientUnits="userSpaceOnUse">
            <stop stop-color="#2E0356"/>
            <stop offset="1" stop-color="#00F0FF"/>
        </linearGradient>
        <linearGradient id="paint36_linear_100_31" x1="96.1109" y1="896.718" x2="304.854" y2="763.579" gradientUnits="userSpaceOnUse">
            <stop stop-color="#2E0356"/>
            <stop offset="1" stop-color="#00F0FF"/>
        </linearGradient>
        <linearGradient id="paint37_linear_100_31" x1="84.404" y1="887.544" x2="291.864" y2="760.089" gradientUnits="userSpaceOnUse">
            <stop stop-color="#2E0356"/>
            <stop offset="1" stop-color="#00F0FF"/>
        </linearGradient>
        <linearGradient id="paint38_linear_100_31" x1="73.2105" y1="878.588" x2="279.777" y2="756.405" gradientUnits="userSpaceOnUse">
            <stop stop-color="#2E0356"/>
            <stop offset="1" stop-color="#00F0FF"/>
        </linearGradient>
        <linearGradient id="paint39_linear_100_31" x1="62.5445" y1="869.904" x2="268.615" y2="752.634" gradientUnits="userSpaceOnUse">
            <stop stop-color="#2E0356"/>
            <stop offset="1" stop-color="#00F0FF"/>
        </linearGradient>
        <linearGradient id="paint40_linear_100_31" x1="52.4205" y1="861.54" x2="258.398" y2="748.875" gradientUnits="userSpaceOnUse">
            <stop stop-color="#2E0356"/>
            <stop offset="1" stop-color="#00F0FF"/>
        </linearGradient>
        <linearGradient id="paint41_linear_100_31" x1="42.8544" y1="853.546" x2="249.154" y2="745.225" gradientUnits="userSpaceOnUse">
            <stop stop-color="#2E0356"/>
            <stop offset="1" stop-color="#00F0FF"/>
        </linearGradient>
        <linearGradient id="paint42_linear_100_31" x1="33.8517" y1="845.967" x2="240.903" y2="741.774" gradientUnits="userSpaceOnUse">
            <stop stop-color="#2E0356"/>
            <stop offset="1" stop-color="#00F0FF"/>
        </linearGradient>
        <linearGradient id="paint43_linear_100_31" x1="25.4237" y1="838.846" x2="233.672" y2="738.609" gradientUnits="userSpaceOnUse">
            <stop stop-color="#2E0356"/>
            <stop offset="1" stop-color="#00F0FF"/>
        </linearGradient>
        <linearGradient id="paint44_linear_100_31" x1="17.574" y1="832.225" x2="227.489" y2="735.818" gradientUnits="userSpaceOnUse">
            <stop stop-color="#2E0356"/>
            <stop offset="1" stop-color="#00F0FF"/>
        </linearGradient>
        <linearGradient id="paint45_linear_100_31" x1="10.3084" y1="826.141" x2="222.385" y2="733.484" gradientUnits="userSpaceOnUse">
            <stop stop-color="#2E0356"/>
            <stop offset="1" stop-color="#00F0FF"/>
        </linearGradient>
        <linearGradient id="paint46_linear_100_31" x1="3.62575" y1="820.631" x2="218.39" y2="731.694" gradientUnits="userSpaceOnUse">
            <stop stop-color="#2E0356"/>
            <stop offset="1" stop-color="#00F0FF"/>
        </linearGradient>
        <linearGradient id="paint47_linear_100_31" x1="-2.47284" y1="815.727" x2="215.544" y2="730.537" gradientUnits="userSpaceOnUse">
            <stop stop-color="#2E0356"/>
            <stop offset="1" stop-color="#00F0FF"/>
        </linearGradient>
        <linearGradient id="paint48_linear_100_31" x1="-7.99047" y1="811.46" x2="213.887" y2="730.106" gradientUnits="userSpaceOnUse">
            <stop stop-color="#2E0356"/>
            <stop offset="1" stop-color="#00F0FF"/>
        </linearGradient>
        <linearGradient id="paint49_linear_100_31" x1="-12.9331" y1="807.857" x2="213.465" y2="730.503" gradientUnits="userSpaceOnUse">
            <stop stop-color="#2E0356"/>
            <stop offset="1" stop-color="#00F0FF"/>
        </linearGradient>
        <linearGradient id="paint50_linear_100_31" x1="-17.3053" y1="804.942" x2="214.332" y2="731.84" gradientUnits="userSpaceOnUse">
            <stop stop-color="#2E0356"/>
            <stop offset="1" stop-color="#00F0FF"/>
        </linearGradient>
        <linearGradient id="paint51_linear_100_31" x1="-21.1182" y1="802.737" x2="216.543" y2="734.248" gradientUnits="userSpaceOnUse">
            <stop stop-color="#2E0356"/>
            <stop offset="1" stop-color="#00F0FF"/>
        </linearGradient>
        <linearGradient id="paint52_linear_100_31" x1="-24.3809" y1="801.259" x2="220.165" y2="737.878" gradientUnits="userSpaceOnUse">
            <stop stop-color="#2E0356"/>
            <stop offset="1" stop-color="#00F0FF"/>
        </linearGradient>
        <linearGradient id="paint53_linear_100_31" x1="-27.1068" y1="800.524" x2="225.265" y2="742.915" gradientUnits="userSpaceOnUse">
            <stop stop-color="#2E0356"/>
            <stop offset="1" stop-color="#00F0FF"/>
        </linearGradient>
        <linearGradient id="paint54_linear_100_31" x1="-29.3075" y1="800.545" x2="231.917" y2="749.587" gradientUnits="userSpaceOnUse">
            <stop stop-color="#2E0356"/>
            <stop offset="1" stop-color="#00F0FF"/>
        </linearGradient>
        <linearGradient id="paint55_linear_100_31" x1="-31.0026" y1="801.329" x2="240.183" y2="758.179" gradientUnits="userSpaceOnUse">
            <stop stop-color="#2E0356"/>
            <stop offset="1" stop-color="#00F0FF"/>
        </linearGradient>
        <linearGradient id="paint56_linear_100_31" x1="-32.2079" y1="802.884" x2="250.117" y2="769.057" gradientUnits="userSpaceOnUse">
            <stop stop-color="#2E0356"/>
            <stop offset="1" stop-color="#00F0FF"/>
        </linearGradient>
        <linearGradient id="paint57_linear_100_31" x1="-32.9423" y1="805.212" x2="261.73" y2="782.688" gradientUnits="userSpaceOnUse">
            <stop stop-color="#2E0356"/>
            <stop offset="1" stop-color="#00F0FF"/>
        </linearGradient>
        <linearGradient id="paint58_linear_100_31" x1="-33.2264" y1="808.313" x2="274.965" y2="799.676" gradientUnits="userSpaceOnUse">
            <stop stop-color="#2E0356"/>
            <stop offset="1" stop-color="#00F0FF"/>
        </linearGradient>
        <linearGradient id="paint59_linear_100_31" x1="-33.0813" y1="812.184" x2="289.624" y2="820.788" gradientUnits="userSpaceOnUse">
            <stop stop-color="#2E0356"/>
            <stop offset="1" stop-color="#00F0FF"/>
        </linearGradient>
        <linearGradient id="paint60_linear_100_31" x1="-32.5295" y1="816.819" x2="305.272" y2="846.985" gradientUnits="userSpaceOnUse">
            <stop stop-color="#2E0356"/>
            <stop offset="1" stop-color="#00F0FF"/>
        </linearGradient>
        <linearGradient id="paint61_linear_100_31" x1="-31.596" y1="822.21" x2="321.068" y2="879.409" gradientUnits="userSpaceOnUse">
            <stop stop-color="#2E0356"/>
            <stop offset="1" stop-color="#00F0FF"/>
        </linearGradient>
        <linearGradient id="paint62_linear_100_31" x1="-30.305" y1="828.345" x2="335.534" y2="919.288" gradientUnits="userSpaceOnUse">
            <stop stop-color="#2E0356"/>
            <stop offset="1" stop-color="#00F0FF"/>
        </linearGradient>
        <linearGradient id="paint63_linear_100_31" x1="-28.6821" y1="835.21" x2="346.264" y2="967.663" gradientUnits="userSpaceOnUse">
            <stop stop-color="#2E0356"/>
            <stop offset="1" stop-color="#00F0FF"/>
        </linearGradient>
        <linearGradient id="paint64_linear_100_31" x1="-26.7541" y1="842.788" x2="349.699" y2="1024.8" gradientUnits="userSpaceOnUse">
            <stop stop-color="#2E0356"/>
            <stop offset="1" stop-color="#00F0FF"/>
        </linearGradient>
        <linearGradient id="paint65_linear_100_31" x1="-24.5487" y1="851.06" x2="341.274" y2="1089.21" gradientUnits="userSpaceOnUse">
            <stop stop-color="#2E0356"/>
            <stop offset="1" stop-color="#00F0FF"/>
        </linearGradient>
        <linearGradient id="paint66_linear_100_31" x1="-22.0929" y1="860.005" x2="316.448" y2="1156.52" gradientUnits="userSpaceOnUse">
            <stop stop-color="#2E0356"/>
            <stop offset="1" stop-color="#00F0FF"/>
        </linearGradient>
        <linearGradient id="paint67_linear_100_31" x1="-19.4142" y1="869.598" x2="272.919" y2="1219.17" gradientUnits="userSpaceOnUse">
            <stop stop-color="#2E0356"/>
            <stop offset="1" stop-color="#00F0FF"/>
        </linearGradient>
        <linearGradient id="paint68_linear_100_31" x1="-16.5505" y1="879.806" x2="213.142" y2="1268.13" gradientUnits="userSpaceOnUse">
            <stop stop-color="#2E0356"/>
            <stop offset="1" stop-color="#00F0FF"/>
        </linearGradient>
    </defs>
</svg>
